<svg width="222" height="39" viewBox="0 0 222 39" fill="none" xmlns="http://www.w3.org/2000/svg">
<rect width="221.029" height="39" rx="10" fill="#365280"/>
<path d="M56.1191 14.1455L52.4717 25H49.9141L54.6953 12.2031H56.3301L56.1191 14.1455ZM59.1689 25L55.5039 14.1455L55.2842 12.2031H56.9277L61.7354 25H59.1689ZM59.002 20.2451V22.1523H52.1377V20.2451H59.002ZM68.5648 15.4902H70.6742V24.71C70.6742 25.5713 70.4867 26.3008 70.1117 26.8984C69.7425 27.502 69.224 27.959 68.556 28.2695C67.888 28.5859 67.1117 28.7441 66.2269 28.7441C65.8461 28.7441 65.433 28.6914 64.9877 28.5859C64.5482 28.4805 64.1234 28.3135 63.7132 28.085C63.3089 27.8623 62.972 27.5723 62.7025 27.2148L63.7484 25.8438C64.0648 26.2129 64.4222 26.4912 64.8207 26.6787C65.2191 26.8721 65.6498 26.9688 66.1127 26.9688C66.5814 26.9688 66.9798 26.8809 67.308 26.7051C67.642 26.5352 67.8968 26.2832 68.0726 25.9492C68.2543 25.6211 68.3451 25.2168 68.3451 24.7363V17.6611L68.5648 15.4902ZM62.14 20.3594V20.1748C62.14 19.4482 62.2279 18.7891 62.4037 18.1973C62.5795 17.5996 62.8314 17.0869 63.1595 16.6592C63.4935 16.2314 63.8949 15.9004 64.3636 15.666C64.8382 15.4316 65.3714 15.3145 65.9632 15.3145C66.5902 15.3145 67.1175 15.4287 67.5453 15.6572C67.9789 15.8857 68.3363 16.2109 68.6175 16.6328C68.9046 17.0547 69.1273 17.5557 69.2855 18.1357C69.4496 18.71 69.5755 19.3428 69.6634 20.0342V20.5352C69.5814 21.209 69.4496 21.8271 69.2679 22.3896C69.0921 22.9521 68.8578 23.4443 68.5648 23.8662C68.2718 24.2822 67.9086 24.6045 67.475 24.833C67.0414 25.0615 66.5316 25.1758 65.9457 25.1758C65.3597 25.1758 64.8324 25.0557 64.3636 24.8154C63.8949 24.5752 63.4935 24.2383 63.1595 23.8047C62.8314 23.3711 62.5795 22.8613 62.4037 22.2754C62.2279 21.6895 62.14 21.0508 62.14 20.3594ZM64.4603 20.1748V20.3594C64.4603 20.7695 64.5013 21.1533 64.5834 21.5107C64.6654 21.8682 64.7914 22.1846 64.9613 22.46C65.1312 22.7295 65.3451 22.9404 65.6029 23.0928C65.8607 23.2451 66.1683 23.3213 66.5257 23.3213C67.0062 23.3213 67.3988 23.2217 67.7035 23.0225C68.014 22.8174 68.2484 22.5391 68.4066 22.1875C68.5707 21.8301 68.6761 21.4287 68.723 20.9834V19.6035C68.6937 19.252 68.6293 18.9268 68.5296 18.6279C68.4359 18.3291 68.3041 18.0713 68.1341 17.8545C67.9642 17.6377 67.7474 17.4678 67.4838 17.3447C67.2201 17.2217 66.9066 17.1602 66.5433 17.1602C66.1918 17.1602 65.8841 17.2393 65.6205 17.3975C65.3568 17.5498 65.14 17.7637 64.9701 18.0391C64.8002 18.3145 64.6713 18.6338 64.5834 18.9971C64.5013 19.3604 64.4603 19.7529 64.4603 20.1748ZM74.7263 17.4326V25H72.406V15.4902H74.6032L74.7263 17.4326ZM77.6179 15.4287L77.5827 17.5908C77.4538 17.5674 77.3073 17.5498 77.1433 17.5381C76.9851 17.5264 76.8357 17.5205 76.695 17.5205C76.3376 17.5205 76.0241 17.5703 75.7546 17.6699C75.4851 17.7637 75.2595 17.9014 75.0779 18.083C74.9021 18.2646 74.7673 18.4873 74.6736 18.751C74.5798 19.0088 74.5271 19.3018 74.5154 19.6299L74.0144 19.5684C74.0144 18.9648 74.0759 18.4053 74.1989 17.8896C74.322 17.374 74.5007 16.9229 74.7351 16.5361C74.9695 16.1494 75.2624 15.8506 75.614 15.6396C75.9714 15.4229 76.3816 15.3145 76.8445 15.3145C76.9734 15.3145 77.1111 15.3262 77.2575 15.3496C77.4099 15.3672 77.53 15.3936 77.6179 15.4287ZM82.628 25.1758C81.9073 25.1758 81.2598 25.0586 80.6856 24.8242C80.1114 24.5898 79.6221 24.2646 79.2179 23.8486C78.8194 23.4268 78.5118 22.9375 78.295 22.3809C78.0841 21.8184 77.9786 21.2148 77.9786 20.5703V20.2188C77.9786 19.4863 78.0841 18.8213 78.295 18.2236C78.5059 17.6201 78.8048 17.1016 79.1915 16.668C79.5782 16.2344 80.0411 15.9004 80.5802 15.666C81.1192 15.4316 81.7139 15.3145 82.3643 15.3145C83.0382 15.3145 83.6329 15.4287 84.1485 15.6572C84.6641 15.8799 85.0948 16.1963 85.4405 16.6064C85.7862 17.0166 86.047 17.5088 86.2227 18.083C86.3985 18.6514 86.4864 19.2812 86.4864 19.9727V20.9482H79.0333V19.3486H84.2013V19.1729C84.1895 18.8037 84.1192 18.4668 83.9903 18.1621C83.8614 17.8516 83.6622 17.6055 83.3927 17.4238C83.1231 17.2363 82.7745 17.1426 82.3468 17.1426C82.0011 17.1426 81.6993 17.2188 81.4415 17.3711C81.1895 17.5176 80.9786 17.7285 80.8087 18.0039C80.6446 18.2734 80.5216 18.5957 80.4395 18.9707C80.3575 19.3457 80.3165 19.7617 80.3165 20.2188V20.5703C80.3165 20.9688 80.3692 21.3379 80.4747 21.6777C80.586 22.0176 80.7471 22.3135 80.9581 22.5654C81.1749 22.8115 81.4327 23.0049 81.7315 23.1455C82.0362 23.2803 82.3819 23.3477 82.7686 23.3477C83.255 23.3477 83.6944 23.2539 84.087 23.0664C84.4854 22.873 84.8311 22.5889 85.1241 22.2139L86.293 23.4268C86.0938 23.7197 85.8243 24.001 85.4845 24.2705C85.1505 24.54 84.7462 24.7598 84.2716 24.9297C83.797 25.0938 83.2491 25.1758 82.628 25.1758ZM93.7289 15.4902H95.8383V24.71C95.8383 25.5713 95.6508 26.3008 95.2758 26.8984C94.9067 27.502 94.3881 27.959 93.7202 28.2695C93.0522 28.5859 92.2758 28.7441 91.3911 28.7441C91.0102 28.7441 90.5971 28.6914 90.1518 28.5859C89.7123 28.4805 89.2875 28.3135 88.8774 28.085C88.4731 27.8623 88.1362 27.5723 87.8666 27.2148L88.9125 25.8438C89.2289 26.2129 89.5864 26.4912 89.9848 26.6787C90.3832 26.8721 90.8139 26.9688 91.2768 26.9688C91.7455 26.9688 92.144 26.8809 92.4721 26.7051C92.8061 26.5352 93.061 26.2832 93.2368 25.9492C93.4184 25.6211 93.5092 25.2168 93.5092 24.7363V17.6611L93.7289 15.4902ZM87.3041 20.3594V20.1748C87.3041 19.4482 87.392 18.7891 87.5678 18.1973C87.7436 17.5996 87.9955 17.0869 88.3237 16.6592C88.6577 16.2314 89.059 15.9004 89.5278 15.666C90.0024 15.4316 90.5356 15.3145 91.1274 15.3145C91.7543 15.3145 92.2817 15.4287 92.7094 15.6572C93.143 15.8857 93.5004 16.2109 93.7817 16.6328C94.0688 17.0547 94.2914 17.5557 94.4496 18.1357C94.6137 18.71 94.7397 19.3428 94.8276 20.0342V20.5352C94.7455 21.209 94.6137 21.8271 94.4321 22.3896C94.2563 22.9521 94.0219 23.4443 93.7289 23.8662C93.436 24.2822 93.0727 24.6045 92.6391 24.833C92.2055 25.0615 91.6957 25.1758 91.1098 25.1758C90.5239 25.1758 89.9965 25.0557 89.5278 24.8154C89.059 24.5752 88.6577 24.2383 88.3237 23.8047C87.9955 23.3711 87.7436 22.8613 87.5678 22.2754C87.392 21.6895 87.3041 21.0508 87.3041 20.3594ZM89.6245 20.1748V20.3594C89.6245 20.7695 89.6655 21.1533 89.7475 21.5107C89.8295 21.8682 89.9555 22.1846 90.1254 22.46C90.2954 22.7295 90.5092 22.9404 90.767 23.0928C91.0248 23.2451 91.3325 23.3213 91.6899 23.3213C92.1704 23.3213 92.5629 23.2217 92.8676 23.0225C93.1782 22.8174 93.4125 22.5391 93.5707 22.1875C93.7348 21.8301 93.8403 21.4287 93.8871 20.9834V19.6035C93.8579 19.252 93.7934 18.9268 93.6938 18.6279C93.6 18.3291 93.4682 18.0713 93.2983 17.8545C93.1284 17.6377 92.9116 17.4678 92.6479 17.3447C92.3842 17.2217 92.0707 17.1602 91.7075 17.1602C91.3559 17.1602 91.0483 17.2393 90.7846 17.3975C90.5209 17.5498 90.3041 17.7637 90.1342 18.0391C89.9643 18.3145 89.8354 18.6338 89.7475 18.9971C89.6655 19.3604 89.6245 19.7529 89.6245 20.1748ZM102.808 22.9785V18.5928C102.808 18.2705 102.753 17.9922 102.641 17.7578C102.53 17.5234 102.36 17.3418 102.132 17.2129C101.903 17.084 101.613 17.0195 101.262 17.0195C100.951 17.0195 100.679 17.0723 100.444 17.1777C100.216 17.2832 100.04 17.4326 99.9168 17.626C99.7938 17.8135 99.7322 18.0303 99.7322 18.2764H97.4031C97.4031 17.8838 97.4969 17.5117 97.6844 17.1602C97.8719 16.8027 98.1385 16.4863 98.4842 16.2109C98.8357 15.9297 99.2547 15.71 99.741 15.5518C100.233 15.3936 100.784 15.3145 101.393 15.3145C102.114 15.3145 102.756 15.4375 103.318 15.6836C103.887 15.9238 104.332 16.2871 104.654 16.7734C104.982 17.2598 105.146 17.8721 105.146 18.6104V22.7588C105.146 23.2334 105.176 23.6406 105.234 23.9805C105.299 24.3145 105.392 24.6045 105.515 24.8506V25H103.151C103.04 24.7598 102.955 24.4551 102.896 24.0859C102.838 23.7109 102.808 23.3418 102.808 22.9785ZM103.134 19.208L103.151 20.5879H101.683C101.32 20.5879 101.001 20.626 100.725 20.7021C100.45 20.7725 100.224 20.8779 100.049 21.0186C99.8729 21.1533 99.741 21.3174 99.6531 21.5107C99.5652 21.6982 99.5213 21.9121 99.5213 22.1523C99.5213 22.3867 99.574 22.5977 99.6795 22.7852C99.7908 22.9727 99.949 23.1221 100.154 23.2334C100.365 23.3389 100.611 23.3916 100.892 23.3916C101.303 23.3916 101.66 23.3096 101.965 23.1455C102.269 22.9756 102.507 22.7705 102.677 22.5303C102.846 22.29 102.937 22.0615 102.949 21.8447L103.617 22.8467C103.535 23.0869 103.412 23.3418 103.248 23.6113C103.084 23.8809 102.873 24.1328 102.615 24.3672C102.357 24.6016 102.047 24.7949 101.683 24.9473C101.32 25.0996 100.898 25.1758 100.418 25.1758C99.8025 25.1758 99.2518 25.0527 98.7654 24.8066C98.2791 24.5605 97.8953 24.2236 97.6141 23.7959C97.3328 23.3682 97.1922 22.8818 97.1922 22.3369C97.1922 21.833 97.2859 21.3877 97.4734 21.001C97.6609 20.6143 97.9393 20.2891 98.3084 20.0254C98.6775 19.7559 99.1346 19.5537 99.6795 19.4189C100.23 19.2783 100.86 19.208 101.569 19.208H103.134ZM109.198 17.4326V25H106.878V15.4902H109.075L109.198 17.4326ZM112.09 15.4287L112.055 17.5908C111.926 17.5674 111.779 17.5498 111.615 17.5381C111.457 17.5264 111.308 17.5205 111.167 17.5205C110.81 17.5205 110.496 17.5703 110.227 17.6699C109.957 17.7637 109.732 17.9014 109.55 18.083C109.374 18.2646 109.239 18.4873 109.146 18.751C109.052 19.0088 108.999 19.3018 108.987 19.6299L108.486 19.5684C108.486 18.9648 108.548 18.4053 108.671 17.8896C108.794 17.374 108.973 16.9229 109.207 16.5361C109.442 16.1494 109.735 15.8506 110.086 15.6396C110.444 15.4229 110.854 15.3145 111.317 15.3145C111.445 15.3145 111.583 15.3262 111.73 15.3496C111.882 15.3672 112.002 15.3936 112.09 15.4287ZM121.126 25H118.366L118.384 23.1016H121.126C121.87 23.1016 122.494 22.9375 122.998 22.6094C123.502 22.2754 123.883 21.7979 124.141 21.1768C124.398 20.5498 124.527 19.7998 124.527 18.9268V18.2676C124.527 17.5938 124.454 16.999 124.308 16.4834C124.161 15.9678 123.944 15.5342 123.657 15.1826C123.376 14.8311 123.027 14.5645 122.611 14.3828C122.195 14.2012 121.718 14.1104 121.179 14.1104H118.313V12.2031H121.179C122.034 12.2031 122.813 12.3467 123.516 12.6338C124.225 12.9209 124.838 13.334 125.353 13.873C125.875 14.4062 126.273 15.0449 126.549 15.7891C126.83 16.5332 126.971 17.3652 126.971 18.2852V18.9268C126.971 19.8408 126.83 20.6729 126.549 21.4229C126.273 22.167 125.875 22.8057 125.353 23.3389C124.838 23.8721 124.223 24.2822 123.508 24.5693C122.793 24.8564 121.999 25 121.126 25ZM119.72 12.2031V25H117.303V12.2031H119.72ZM128.078 20.3418V20.1572C128.078 19.46 128.178 18.8184 128.377 18.2324C128.576 17.6406 128.866 17.1279 129.247 16.6943C129.628 16.2607 130.094 15.9238 130.645 15.6836C131.196 15.4375 131.823 15.3145 132.526 15.3145C133.24 15.3145 133.873 15.4375 134.424 15.6836C134.981 15.9238 135.449 16.2607 135.83 16.6943C136.211 17.1279 136.501 17.6406 136.7 18.2324C136.9 18.8184 136.999 19.46 136.999 20.1572V20.3418C136.999 21.0332 136.9 21.6748 136.7 22.2666C136.501 22.8525 136.211 23.3652 135.83 23.8047C135.449 24.2383 134.984 24.5752 134.433 24.8154C133.882 25.0557 133.252 25.1758 132.543 25.1758C131.84 25.1758 131.21 25.0557 130.654 24.8154C130.097 24.5752 129.628 24.2383 129.247 23.8047C128.866 23.3652 128.576 22.8525 128.377 22.2666C128.178 21.6748 128.078 21.0332 128.078 20.3418ZM130.399 20.1572V20.3418C130.399 20.7578 130.44 21.1475 130.522 21.5107C130.604 21.874 130.73 22.1934 130.9 22.4688C131.07 22.7441 131.289 22.9609 131.559 23.1191C131.834 23.2715 132.162 23.3477 132.543 23.3477C132.918 23.3477 133.24 23.2715 133.51 23.1191C133.78 22.9609 133.999 22.7441 134.169 22.4688C134.345 22.1934 134.474 21.874 134.556 21.5107C134.638 21.1475 134.679 20.7578 134.679 20.3418V20.1572C134.679 19.7471 134.638 19.3633 134.556 19.0059C134.474 18.6426 134.345 18.3232 134.169 18.0479C133.999 17.7666 133.777 17.5469 133.501 17.3887C133.232 17.2246 132.906 17.1426 132.526 17.1426C132.151 17.1426 131.828 17.2246 131.559 17.3887C131.289 17.5469 131.07 17.7666 130.9 18.0479C130.73 18.3232 130.604 18.6426 130.522 19.0059C130.44 19.3633 130.399 19.7471 130.399 20.1572ZM142.229 23.3477C142.557 23.3477 142.85 23.2832 143.108 23.1543C143.366 23.0254 143.571 22.8438 143.723 22.6094C143.881 22.375 143.966 22.1025 143.978 21.792H146.167C146.155 22.4365 145.973 23.0137 145.622 23.5234C145.27 24.0332 144.801 24.4375 144.215 24.7363C143.635 25.0293 142.985 25.1758 142.264 25.1758C141.532 25.1758 140.893 25.0527 140.348 24.8066C139.803 24.5605 139.349 24.2178 138.986 23.7783C138.629 23.3389 138.359 22.8291 138.177 22.249C138.002 21.6689 137.914 21.0479 137.914 20.3857V20.1045C137.914 19.4424 138.002 18.8213 138.177 18.2412C138.359 17.6611 138.629 17.1514 138.986 16.7119C139.349 16.2725 139.803 15.9297 140.348 15.6836C140.893 15.4375 141.529 15.3145 142.255 15.3145C143.023 15.3145 143.697 15.4639 144.277 15.7627C144.863 16.0615 145.32 16.4834 145.648 17.0283C145.982 17.5732 146.155 18.2148 146.167 18.9531H143.978C143.966 18.6133 143.89 18.3086 143.75 18.0391C143.609 17.7695 143.41 17.5527 143.152 17.3887C142.894 17.2246 142.581 17.1426 142.212 17.1426C141.819 17.1426 141.491 17.2246 141.227 17.3887C140.969 17.5527 140.767 17.7783 140.621 18.0654C140.48 18.3467 140.38 18.6631 140.322 19.0146C140.269 19.3604 140.243 19.7236 140.243 20.1045V20.3857C140.243 20.7725 140.269 21.1416 140.322 21.4932C140.38 21.8447 140.48 22.1611 140.621 22.4424C140.767 22.7178 140.969 22.9375 141.227 23.1016C141.491 23.2656 141.825 23.3477 142.229 23.3477ZM153.014 22.7412V15.4902H155.352V25H153.154L153.014 22.7412ZM153.312 20.7725L154.033 20.7549C154.033 21.3936 153.963 21.9824 153.822 22.5215C153.682 23.0605 153.462 23.5293 153.163 23.9277C152.87 24.3203 152.498 24.6279 152.047 24.8506C151.596 25.0674 151.062 25.1758 150.447 25.1758C149.978 25.1758 149.551 25.1113 149.164 24.9824C148.777 24.8477 148.443 24.6396 148.162 24.3584C147.887 24.0713 147.673 23.7051 147.52 23.2598C147.368 22.8086 147.292 22.2666 147.292 21.6338V15.4902H149.612V21.6514C149.612 21.9678 149.647 22.2314 149.718 22.4424C149.794 22.6533 149.896 22.8262 150.025 22.9609C150.16 23.0898 150.315 23.1836 150.491 23.2422C150.673 23.2949 150.866 23.3213 151.071 23.3213C151.634 23.3213 152.076 23.21 152.398 22.9873C152.727 22.7588 152.961 22.4541 153.102 22.0732C153.242 21.6865 153.312 21.2529 153.312 20.7725ZM159.36 17.4414V25H157.039V15.4902H159.228L159.36 17.4414ZM159.017 19.9023H158.305C158.305 19.2402 158.384 18.6309 158.542 18.0742C158.706 17.5176 158.947 17.0342 159.263 16.624C159.579 16.208 159.969 15.8857 160.432 15.6572C160.901 15.4287 161.443 15.3145 162.058 15.3145C162.486 15.3145 162.878 15.3789 163.236 15.5078C163.593 15.6309 163.901 15.8271 164.159 16.0967C164.422 16.3604 164.624 16.7061 164.765 17.1338C164.906 17.5557 164.976 18.0625 164.976 18.6543V25H162.656V18.8916C162.656 18.4463 162.591 18.0977 162.462 17.8457C162.339 17.5938 162.16 17.418 161.926 17.3184C161.692 17.2129 161.41 17.1602 161.082 17.1602C160.719 17.1602 160.406 17.2334 160.142 17.3799C159.884 17.5205 159.67 17.7168 159.5 17.9688C159.336 18.2207 159.213 18.5107 159.131 18.8389C159.055 19.167 159.017 19.5215 159.017 19.9023ZM164.8 19.4717L163.842 19.6475C163.848 19.0498 163.93 18.4902 164.088 17.9688C164.246 17.4414 164.478 16.9814 164.783 16.5889C165.093 16.1904 165.477 15.8799 165.934 15.6572C166.397 15.4287 166.93 15.3145 167.534 15.3145C168.002 15.3145 168.424 15.3818 168.799 15.5166C169.18 15.6455 169.505 15.8535 169.775 16.1406C170.044 16.4219 170.249 16.7881 170.39 17.2393C170.536 17.6904 170.61 18.2412 170.61 18.8916V25H168.272V18.8828C168.272 18.4199 168.207 18.0654 168.078 17.8193C167.955 17.5732 167.777 17.4033 167.542 17.3096C167.308 17.21 167.033 17.1602 166.716 17.1602C166.394 17.1602 166.113 17.2217 165.872 17.3447C165.638 17.4619 165.439 17.626 165.275 17.8369C165.117 18.0479 164.996 18.2939 164.914 18.5752C164.838 18.8506 164.8 19.1494 164.8 19.4717ZM176.604 25.1758C175.883 25.1758 175.236 25.0586 174.662 24.8242C174.088 24.5898 173.598 24.2646 173.194 23.8486C172.796 23.4268 172.488 22.9375 172.271 22.3809C172.06 21.8184 171.955 21.2148 171.955 20.5703V20.2188C171.955 19.4863 172.06 18.8213 172.271 18.2236C172.482 17.6201 172.781 17.1016 173.168 16.668C173.554 16.2344 174.017 15.9004 174.556 15.666C175.095 15.4316 175.69 15.3145 176.341 15.3145C177.014 15.3145 177.609 15.4287 178.125 15.6572C178.64 15.8799 179.071 16.1963 179.417 16.6064C179.762 17.0166 180.023 17.5088 180.199 18.083C180.375 18.6514 180.463 19.2812 180.463 19.9727V20.9482H173.009V19.3486H178.177V19.1729C178.166 18.8037 178.095 18.4668 177.966 18.1621C177.838 17.8516 177.638 17.6055 177.369 17.4238C177.099 17.2363 176.751 17.1426 176.323 17.1426C175.977 17.1426 175.675 17.2188 175.418 17.3711C175.166 17.5176 174.955 17.7285 174.785 18.0039C174.621 18.2734 174.498 18.5957 174.416 18.9707C174.334 19.3457 174.293 19.7617 174.293 20.2188V20.5703C174.293 20.9688 174.345 21.3379 174.451 21.6777C174.562 22.0176 174.723 22.3135 174.934 22.5654C175.151 22.8115 175.409 23.0049 175.708 23.1455C176.012 23.2803 176.358 23.3477 176.745 23.3477C177.231 23.3477 177.671 23.2539 178.063 23.0664C178.462 22.873 178.807 22.5889 179.1 22.2139L180.269 23.4268C180.07 23.7197 179.8 24.001 179.461 24.2705C179.127 24.54 178.722 24.7598 178.248 24.9297C177.773 25.0938 177.225 25.1758 176.604 25.1758ZM183.935 17.5205V25H181.614V15.4902H183.794L183.935 17.5205ZM183.565 19.9023H182.88C182.886 19.2109 182.98 18.584 183.161 18.0215C183.343 17.459 183.598 16.9756 183.926 16.5713C184.26 16.167 184.655 15.8564 185.112 15.6396C185.569 15.4229 186.079 15.3145 186.642 15.3145C187.099 15.3145 187.512 15.3789 187.881 15.5078C188.25 15.6367 188.566 15.8418 188.83 16.123C189.1 16.4043 189.305 16.7734 189.445 17.2305C189.592 17.6816 189.665 18.2383 189.665 18.9004V25H187.327V18.8828C187.327 18.4492 187.263 18.1064 187.134 17.8545C187.011 17.6025 186.829 17.4238 186.589 17.3184C186.355 17.2129 186.064 17.1602 185.719 17.1602C185.361 17.1602 185.048 17.2334 184.778 17.3799C184.515 17.5205 184.292 17.7168 184.11 17.9688C183.935 18.2207 183.8 18.5107 183.706 18.8389C183.612 19.167 183.565 19.5215 183.565 19.9023ZM195.853 15.4902V17.1602H190.404V15.4902H195.853ZM191.863 13.1523H194.192V22.2578C194.192 22.5391 194.23 22.7559 194.306 22.9082C194.382 23.0605 194.496 23.1631 194.649 23.2158C194.801 23.2686 194.983 23.2949 195.194 23.2949C195.346 23.2949 195.487 23.2861 195.616 23.2686C195.745 23.251 195.853 23.2334 195.941 23.2158L195.95 24.9561C195.756 25.0205 195.537 25.0732 195.29 25.1143C195.05 25.1553 194.778 25.1758 194.473 25.1758C193.952 25.1758 193.495 25.0879 193.102 24.9121C192.709 24.7305 192.405 24.4404 192.188 24.042C191.971 23.6377 191.863 23.1045 191.863 22.4424V13.1523ZM196.398 20.3418V20.1572C196.398 19.46 196.498 18.8184 196.697 18.2324C196.896 17.6406 197.186 17.1279 197.567 16.6943C197.948 16.2607 198.414 15.9238 198.965 15.6836C199.515 15.4375 200.142 15.3145 200.845 15.3145C201.56 15.3145 202.193 15.4375 202.744 15.6836C203.301 15.9238 203.769 16.2607 204.15 16.6943C204.531 17.1279 204.821 17.6406 205.02 18.2324C205.219 18.8184 205.319 19.46 205.319 20.1572V20.3418C205.319 21.0332 205.219 21.6748 205.02 22.2666C204.821 22.8525 204.531 23.3652 204.15 23.8047C203.769 24.2383 203.303 24.5752 202.753 24.8154C202.202 25.0557 201.572 25.1758 200.863 25.1758C200.16 25.1758 199.53 25.0557 198.973 24.8154C198.417 24.5752 197.948 24.2383 197.567 23.8047C197.186 23.3652 196.896 22.8525 196.697 22.2666C196.498 21.6748 196.398 21.0332 196.398 20.3418ZM198.719 20.1572V20.3418C198.719 20.7578 198.76 21.1475 198.842 21.5107C198.924 21.874 199.05 22.1934 199.219 22.4688C199.389 22.7441 199.609 22.9609 199.879 23.1191C200.154 23.2715 200.482 23.3477 200.863 23.3477C201.238 23.3477 201.56 23.2715 201.83 23.1191C202.099 22.9609 202.319 22.7441 202.489 22.4688C202.665 22.1934 202.794 21.874 202.876 21.5107C202.958 21.1475 202.999 20.7578 202.999 20.3418V20.1572C202.999 19.7471 202.958 19.3633 202.876 19.0059C202.794 18.6426 202.665 18.3232 202.489 18.0479C202.319 17.7666 202.096 17.5469 201.821 17.3887C201.552 17.2246 201.226 17.1426 200.845 17.1426C200.47 17.1426 200.148 17.2246 199.879 17.3887C199.609 17.5469 199.389 17.7666 199.219 18.0479C199.05 18.3232 198.924 18.6426 198.842 19.0059C198.76 19.3633 198.719 19.7471 198.719 20.1572Z" fill="white"/>
<path d="M36.3845 17.5H29.5746C28.9553 17.5 28.3615 17.2629 27.9236 16.841C27.4857 16.419 27.2398 15.8467 27.2398 15.25V8.6875C27.2398 8.63777 27.2193 8.59008 27.1828 8.55492C27.1463 8.51975 27.0968 8.5 27.0452 8.5H22.5701C21.7445 8.5 20.9527 8.81607 20.3688 9.37868C19.785 9.94129 19.457 10.7044 19.457 11.5V26.5C19.457 27.2956 19.785 28.0587 20.3688 28.6213C20.9527 29.1839 21.7445 29.5 22.5701 29.5H33.4659C34.2916 29.5 35.0834 29.1839 35.6672 28.6213C36.251 28.0587 36.579 27.2956 36.579 26.5V17.6875C36.579 17.6378 36.5585 17.5901 36.522 17.5549C36.4855 17.5198 36.4361 17.5 36.3845 17.5ZM31.9094 25H24.1267C23.9203 25 23.7223 24.921 23.5763 24.7803C23.4304 24.6397 23.3484 24.4489 23.3484 24.25C23.3484 24.0511 23.4304 23.8603 23.5763 23.7197C23.7223 23.579 23.9203 23.5 24.1267 23.5H31.9094C32.1158 23.5 32.3138 23.579 32.4597 23.7197C32.6057 23.8603 32.6877 24.0511 32.6877 24.25C32.6877 24.4489 32.6057 24.6397 32.4597 24.7803C32.3138 24.921 32.1158 25 31.9094 25ZM31.9094 21.25H24.1267C23.9203 21.25 23.7223 21.171 23.5763 21.0303C23.4304 20.8897 23.3484 20.6989 23.3484 20.5C23.3484 20.3011 23.4304 20.1103 23.5763 19.9697C23.7223 19.829 23.9203 19.75 24.1267 19.75H31.9094C32.1158 19.75 32.3138 19.829 32.4597 19.9697C32.6057 20.1103 32.6877 20.3011 32.6877 20.5C32.6877 20.6989 32.6057 20.8897 32.4597 21.0303C32.3138 21.171 32.1158 21.25 31.9094 21.25Z" fill="white"/>
<path d="M35.957 15.8401L28.9618 9.09904C28.9482 9.08601 28.9309 9.07714 28.912 9.07356C28.8932 9.06997 28.8737 9.07183 28.856 9.07889C28.8383 9.08595 28.8231 9.09791 28.8124 9.11326C28.8017 9.1286 28.796 9.14665 28.7959 9.16513V15.25C28.7959 15.4489 28.8779 15.6397 29.0238 15.7803C29.1698 15.921 29.3678 16 29.5742 16H35.8884C35.9076 15.9999 35.9263 15.9944 35.9422 15.9841C35.9581 15.9737 35.9706 15.9591 35.9779 15.9421C35.9852 15.925 35.9871 15.9062 35.9834 15.888C35.9797 15.8699 35.9705 15.8532 35.957 15.8401Z" fill="white"/>
</svg>
