<svg width="143" height="26" viewBox="0 0 143 26" fill="none" xmlns="http://www.w3.org/2000/svg">
<rect width="143" height="26" rx="10" fill="#365280"/>
<path d="M51.207 10.7637L48.7754 18H47.0703L50.2578 9.46875H51.3477L51.207 10.7637ZM53.2402 18L50.7969 10.7637L50.6504 9.46875H51.7461L54.9512 18H53.2402ZM53.1289 14.8301V16.1016H48.5527V14.8301H53.1289ZM56.8381 13.0137V18H55.2913V11.6602H56.7444L56.8381 13.0137ZM56.592 14.6016H56.135C56.1389 14.1406 56.2014 13.7227 56.3225 13.3477C56.4436 12.9727 56.6135 12.6504 56.8323 12.3809C57.0549 12.1113 57.3186 11.9043 57.6233 11.7598C57.928 11.6152 58.2678 11.543 58.6428 11.543C58.9475 11.543 59.2229 11.5859 59.469 11.6719C59.7151 11.7578 59.926 11.8945 60.1018 12.082C60.2815 12.2695 60.4182 12.5156 60.512 12.8203C60.6096 13.1211 60.6584 13.4922 60.6584 13.9336V18H59.0998V13.9219C59.0998 13.6328 59.0569 13.4043 58.9709 13.2363C58.8889 13.0684 58.7678 12.9492 58.6077 12.8789C58.4514 12.8086 58.258 12.7734 58.0276 12.7734C57.7893 12.7734 57.5803 12.8223 57.4006 12.9199C57.2248 13.0137 57.0764 13.1445 56.9553 13.3125C56.8381 13.4805 56.7483 13.6738 56.6858 13.8926C56.6233 14.1113 56.592 14.3477 56.592 14.6016ZM59.2522 9.05273L60.1721 9.11719C60.1721 9.40234 60.1135 9.66016 59.9963 9.89062C59.883 10.1172 59.7288 10.2969 59.5334 10.4297C59.3381 10.5625 59.1135 10.6289 58.8596 10.6289C58.6721 10.6289 58.51 10.6035 58.3733 10.5527C58.2405 10.502 58.1174 10.4414 58.0041 10.3711C57.8948 10.3008 57.7815 10.2402 57.6643 10.1895C57.5471 10.1348 57.4104 10.1074 57.2541 10.1074C57.1135 10.1074 56.9924 10.1602 56.8909 10.2656C56.7932 10.3711 56.7444 10.5137 56.7444 10.6934L55.8186 10.6465C55.8186 10.3652 55.8752 10.1094 55.9885 9.87891C56.1018 9.64844 56.2561 9.46484 56.4514 9.32812C56.6506 9.19141 56.8772 9.12305 57.1311 9.12305C57.2913 9.12305 57.4358 9.14844 57.5647 9.19922C57.6975 9.25 57.8245 9.31055 57.9455 9.38086C58.0666 9.44727 58.1897 9.50781 58.3147 9.5625C58.4436 9.61328 58.5823 9.63867 58.7307 9.63867C58.8752 9.63867 58.9983 9.58594 59.0998 9.48047C59.2014 9.375 59.2522 9.23242 59.2522 9.05273ZM65.2759 16.6523V13.7285C65.2759 13.5137 65.2388 13.3281 65.1645 13.1719C65.0903 13.0156 64.977 12.8945 64.8247 12.8086C64.6723 12.7227 64.479 12.6797 64.2446 12.6797C64.0376 12.6797 63.8559 12.7148 63.6997 12.7852C63.5473 12.8555 63.4302 12.9551 63.3481 13.084C63.2661 13.209 63.2251 13.3535 63.2251 13.5176H61.6723C61.6723 13.2559 61.7348 13.0078 61.8598 12.7734C61.9848 12.5352 62.1626 12.3242 62.393 12.1406C62.6274 11.9531 62.9067 11.8066 63.2309 11.7012C63.5591 11.5957 63.9263 11.543 64.3325 11.543C64.813 11.543 65.2407 11.625 65.6157 11.7891C65.9946 11.9492 66.2915 12.1914 66.5063 12.5156C66.7251 12.8398 66.8345 13.248 66.8345 13.7402V16.5059C66.8345 16.8223 66.854 17.0938 66.893 17.3203C66.936 17.543 66.9985 17.7363 67.0805 17.9004V18H65.5044C65.4302 17.8398 65.3735 17.6367 65.3345 17.3906C65.2954 17.1406 65.2759 16.8945 65.2759 16.6523ZM65.4927 14.1387L65.5044 15.0586H64.5259C64.2837 15.0586 64.0708 15.084 63.8872 15.1348C63.7036 15.1816 63.5532 15.252 63.436 15.3457C63.3188 15.4355 63.2309 15.5449 63.1723 15.6738C63.1138 15.7988 63.0845 15.9414 63.0845 16.1016C63.0845 16.2578 63.1196 16.3984 63.1899 16.5234C63.2641 16.6484 63.3696 16.748 63.5063 16.8223C63.647 16.8926 63.811 16.9277 63.9985 16.9277C64.272 16.9277 64.5102 16.873 64.7134 16.7637C64.9165 16.6504 65.0747 16.5137 65.188 16.3535C65.3013 16.1934 65.3618 16.041 65.3696 15.8965L65.8149 16.5645C65.7602 16.7246 65.6782 16.8945 65.5688 17.0742C65.4595 17.2539 65.3188 17.4219 65.147 17.5781C64.9751 17.7344 64.768 17.8633 64.5259 17.9648C64.2837 18.0664 64.0024 18.1172 63.6821 18.1172C63.272 18.1172 62.9048 18.0352 62.5805 17.8711C62.2563 17.707 62.0005 17.4824 61.813 17.1973C61.6255 16.9121 61.5317 16.5879 61.5317 16.2246C61.5317 15.8887 61.5942 15.5918 61.7192 15.334C61.8442 15.0762 62.0298 14.8594 62.2759 14.6836C62.522 14.5039 62.8266 14.3691 63.1899 14.2793C63.5571 14.1855 63.977 14.1387 64.4497 14.1387H65.4927ZM71.7917 16.6523V9H73.3503V18H71.9441L71.7917 16.6523ZM67.7195 14.9062V14.7832C67.7195 14.2988 67.7741 13.8594 67.8835 13.4648C67.9968 13.0664 68.1609 12.7246 68.3757 12.4395C68.5905 12.1543 68.8503 11.9336 69.155 11.7773C69.4636 11.6211 69.8132 11.543 70.2038 11.543C70.5827 11.543 70.9128 11.6191 71.1941 11.7715C71.4792 11.9238 71.7214 12.1406 71.9206 12.4219C72.1238 12.7031 72.2859 13.0371 72.407 13.4238C72.528 13.8066 72.6159 14.2285 72.6706 14.6895V15.0234C72.6159 15.4727 72.528 15.8848 72.407 16.2598C72.2859 16.6348 72.1238 16.9629 71.9206 17.2441C71.7214 17.5215 71.4792 17.7363 71.1941 17.8887C70.9089 18.041 70.5749 18.1172 70.1921 18.1172C69.8054 18.1172 69.4577 18.0371 69.1491 17.877C68.8445 17.7168 68.5847 17.4922 68.3698 17.2031C68.1589 16.9141 67.9968 16.5742 67.8835 16.1836C67.7741 15.793 67.7195 15.3672 67.7195 14.9062ZM69.2722 14.7832V14.9062C69.2722 15.1797 69.2956 15.4355 69.3425 15.6738C69.3894 15.9121 69.4655 16.123 69.571 16.3066C69.6765 16.4863 69.8113 16.627 69.9753 16.7285C70.1433 16.8301 70.3464 16.8809 70.5847 16.8809C70.8894 16.8809 71.1394 16.8145 71.3347 16.6816C71.5339 16.5449 71.6882 16.3594 71.7976 16.125C71.907 15.8867 71.9773 15.6191 72.0085 15.3223V14.4023C71.9929 14.168 71.9519 13.9512 71.8855 13.752C71.823 13.5527 71.7331 13.3809 71.6159 13.2363C71.5027 13.0918 71.362 12.9785 71.1941 12.8965C71.0261 12.8145 70.8269 12.7734 70.5964 12.7734C70.3581 12.7734 70.155 12.8262 69.987 12.9316C69.8191 13.0332 69.6823 13.1758 69.5769 13.3594C69.4714 13.543 69.3933 13.7559 69.3425 13.998C69.2956 14.2402 69.2722 14.502 69.2722 14.7832ZM76.1513 11.6602V18H74.5986V11.6602H76.1513ZM74.4931 10.002C74.4931 9.77148 74.5713 9.58008 74.7275 9.42773C74.8877 9.27539 75.1025 9.19922 75.372 9.19922C75.6416 9.19922 75.8545 9.27539 76.0107 9.42773C76.1709 9.58008 76.2509 9.77148 76.2509 10.002C76.2509 10.2285 76.1709 10.418 76.0107 10.5703C75.8545 10.7227 75.6416 10.7988 75.372 10.7988C75.1025 10.7988 74.8877 10.7227 74.7275 10.5703C74.5713 10.418 74.4931 10.2285 74.4931 10.002ZM78.9348 12.9551V18H77.3879V11.6602H78.8527L78.9348 12.9551ZM80.8625 11.6191L80.8391 13.0605C80.7531 13.0449 80.6555 13.0332 80.5461 13.0254C80.4406 13.0176 80.341 13.0137 80.2473 13.0137C80.009 13.0137 79.8 13.0469 79.6203 13.1133C79.4406 13.1758 79.2902 13.2676 79.1691 13.3887C79.052 13.5098 78.9621 13.6582 78.8996 13.834C78.8371 14.0059 78.802 14.2012 78.7941 14.4199L78.4602 14.3789C78.4602 13.9766 78.5012 13.6035 78.5832 13.2598C78.6652 12.916 78.7844 12.6152 78.9406 12.3574C79.0969 12.0996 79.2922 11.9004 79.5266 11.7598C79.7648 11.6152 80.0383 11.543 80.3469 11.543C80.4328 11.543 80.5246 11.5508 80.6223 11.5664C80.7238 11.5781 80.8039 11.5957 80.8625 11.6191ZM89.9919 16.7344V18H85.4567V16.7344H89.9919ZM85.9489 9.46875V18H84.3376V9.46875H85.9489ZM89.4001 12.9902V14.2266H85.4567V12.9902H89.4001ZM89.9743 9.46875V10.7402H85.4567V9.46875H89.9743ZM92.705 16.8281L94.1816 11.6602H95.7988L93.6249 18H92.6405L92.705 16.8281ZM91.6269 11.6602L93.121 16.8398L93.1738 18H92.1835L90.0038 11.6602H91.6269ZM99.1388 18.1172C98.6584 18.1172 98.2267 18.0391 97.8439 17.8828C97.4611 17.7266 97.1349 17.5098 96.8654 17.2324C96.5998 16.9512 96.3947 16.625 96.2502 16.2539C96.1095 15.8789 96.0392 15.4766 96.0392 15.0469V14.8125C96.0392 14.3242 96.1095 13.8809 96.2502 13.4824C96.3908 13.0801 96.59 12.7344 96.8478 12.4453C97.1056 12.1562 97.4142 11.9336 97.7736 11.7773C98.133 11.6211 98.5295 11.543 98.963 11.543C99.4123 11.543 99.8088 11.6191 100.153 11.7715C100.496 11.9199 100.783 12.1309 101.014 12.4043C101.244 12.6777 101.418 13.0059 101.535 13.3887C101.653 13.7676 101.711 14.1875 101.711 14.6484V15.2988H96.7423V14.2324H100.188V14.1152C100.18 13.8691 100.133 13.6445 100.047 13.4414C99.9611 13.2344 99.8283 13.0703 99.6486 12.9492C99.4689 12.8242 99.2365 12.7617 98.9513 12.7617C98.7209 12.7617 98.5197 12.8125 98.3478 12.9141C98.1798 13.0117 98.0392 13.1523 97.9259 13.3359C97.8166 13.5156 97.7345 13.7305 97.6798 13.9805C97.6252 14.2305 97.5978 14.5078 97.5978 14.8125V15.0469C97.5978 15.3125 97.633 15.5586 97.7033 15.7852C97.7775 16.0117 97.8849 16.209 98.0255 16.377C98.1701 16.541 98.342 16.6699 98.5412 16.7637C98.7443 16.8535 98.9748 16.8984 99.2326 16.8984C99.5568 16.8984 99.8498 16.8359 100.111 16.7109C100.377 16.582 100.608 16.3926 100.803 16.1426L101.582 16.9512C101.449 17.1465 101.27 17.334 101.043 17.5137C100.82 17.6934 100.551 17.8398 100.235 17.9531C99.9181 18.0625 99.5529 18.1172 99.1388 18.1172ZM104.026 13.0137V18H102.479V11.6602H103.932L104.026 13.0137ZM103.78 14.6016H103.323C103.327 14.1406 103.389 13.7227 103.51 13.3477C103.631 12.9727 103.801 12.6504 104.02 12.3809C104.243 12.1113 104.506 11.9043 104.811 11.7598C105.116 11.6152 105.455 11.543 105.83 11.543C106.135 11.543 106.411 11.5859 106.657 11.6719C106.903 11.7578 107.114 11.8945 107.289 12.082C107.469 12.2695 107.606 12.5156 107.7 12.8203C107.797 13.1211 107.846 13.4922 107.846 13.9336V18H106.287V13.9219C106.287 13.6328 106.245 13.4043 106.159 13.2363C106.077 13.0684 105.955 12.9492 105.795 12.8789C105.639 12.8086 105.446 12.7734 105.215 12.7734C104.977 12.7734 104.768 12.8223 104.588 12.9199C104.412 13.0137 104.264 13.1445 104.143 13.3125C104.026 13.4805 103.936 13.6738 103.873 13.8926C103.811 14.1113 103.78 14.3477 103.78 14.6016ZM111.971 11.6602V12.7734H108.339V11.6602H111.971ZM109.311 10.1016H110.864V16.1719C110.864 16.3594 110.889 16.5039 110.94 16.6055C110.991 16.707 111.067 16.7754 111.169 16.8105C111.27 16.8457 111.391 16.8633 111.532 16.8633C111.633 16.8633 111.727 16.8574 111.813 16.8457C111.899 16.834 111.971 16.8223 112.03 16.8105L112.036 17.9707C111.907 18.0137 111.76 18.0488 111.596 18.0762C111.436 18.1035 111.255 18.1172 111.051 18.1172C110.704 18.1172 110.399 18.0586 110.137 17.9414C109.876 17.8203 109.673 17.627 109.528 17.3613C109.383 17.0918 109.311 16.7363 109.311 16.2949V10.1016ZM112.335 14.8945V14.7715C112.335 14.3066 112.401 13.8789 112.534 13.4883C112.667 13.0938 112.86 12.752 113.114 12.4629C113.368 12.1738 113.679 11.9492 114.046 11.7891C114.413 11.625 114.831 11.543 115.3 11.543C115.776 11.543 116.198 11.625 116.565 11.7891C116.936 11.9492 117.249 12.1738 117.503 12.4629C117.757 12.752 117.95 13.0938 118.083 13.4883C118.216 13.8789 118.282 14.3066 118.282 14.7715V14.8945C118.282 15.3555 118.216 15.7832 118.083 16.1777C117.95 16.5684 117.757 16.9102 117.503 17.2031C117.249 17.4922 116.938 17.7168 116.571 17.877C116.204 18.0371 115.784 18.1172 115.311 18.1172C114.843 18.1172 114.423 18.0371 114.052 17.877C113.681 17.7168 113.368 17.4922 113.114 17.2031C112.86 16.9102 112.667 16.5684 112.534 16.1777C112.401 15.7832 112.335 15.3555 112.335 14.8945ZM113.882 14.7715V14.8945C113.882 15.1719 113.909 15.4316 113.964 15.6738C114.018 15.916 114.102 16.1289 114.216 16.3125C114.329 16.4961 114.475 16.6406 114.655 16.7461C114.839 16.8477 115.058 16.8984 115.311 16.8984C115.561 16.8984 115.776 16.8477 115.956 16.7461C116.136 16.6406 116.282 16.4961 116.395 16.3125C116.513 16.1289 116.599 15.916 116.653 15.6738C116.708 15.4316 116.735 15.1719 116.735 14.8945V14.7715C116.735 14.498 116.708 14.2422 116.653 14.0039C116.599 13.7617 116.513 13.5488 116.395 13.3652C116.282 13.1777 116.134 13.0312 115.95 12.9258C115.77 12.8164 115.554 12.7617 115.3 12.7617C115.05 12.7617 114.835 12.8164 114.655 12.9258C114.475 13.0312 114.329 13.1777 114.216 13.3652C114.102 13.5488 114.018 13.7617 113.964 14.0039C113.909 14.2422 113.882 14.498 113.882 14.7715Z" fill="white"/>
<path d="M30.1667 19.9999H21.3519C20.6004 19.9999 19.8798 19.7716 19.3484 19.3653C18.8171 18.9589 18.5186 18.4078 18.5186 17.8332V11.0924C18.5186 10.5178 18.8171 9.96671 19.3484 9.56038C19.8798 9.15405 20.6004 8.92578 21.3519 8.92578H30.1667C30.9181 8.92578 31.6388 9.15405 32.1702 9.56038C32.7015 9.96671 33 10.5178 33 11.0924V17.8332C33 18.4078 32.7015 18.9589 32.1702 19.3653C31.6388 19.7716 30.9181 19.9999 30.1667 19.9999Z" fill="white"/>
<path d="M30.1667 19.4999H21.3519C20.696 19.4999 20.0856 19.2995 19.6521 18.9681L19.3642 19.3446L19.6521 18.9681C19.2215 18.6388 19.0186 18.2253 19.0186 17.8332V11.0924C19.0186 10.7003 19.2215 10.2868 19.6521 9.95756C20.0856 9.62609 20.696 9.42578 21.3519 9.42578H30.1667C30.8226 9.42578 31.433 9.62609 31.8664 9.95756C32.297 10.2868 32.5 10.7003 32.5 11.0924V17.8332C32.5 18.2253 32.297 18.6388 31.8664 18.9681C31.433 19.2995 30.8226 19.4999 30.1667 19.4999Z" stroke="white" stroke-opacity="0.6"/>
<path d="M21.037 8.44444H30.3194C30.1235 8.02232 29.7616 7.65688 29.2833 7.39827C28.8051 7.13966 28.2339 7.00054 27.6481 7H18.8333C18.0819 7 17.3612 7.22827 16.8299 7.6346C16.2985 8.04093 16 8.59203 16 9.16667V15.9074C16.0007 16.3553 16.1826 16.7921 16.5208 17.1578C16.859 17.5235 17.3369 17.8003 17.8889 17.9501V10.8519C17.8889 10.2134 18.2206 9.60103 18.811 9.14956C19.4014 8.69808 20.2021 8.44444 21.037 8.44444Z" fill="white"/>
<path d="M17.3889 10.8519V17.2101C17.1927 17.0981 17.0238 16.9653 16.8879 16.8184C16.6248 16.5338 16.5006 16.2148 16.5 15.907V9.16667C16.5 8.77455 16.703 8.36106 17.1336 8.03178C17.5671 7.70031 18.1774 7.5 18.8333 7.5H27.6479C28.1573 7.5005 28.6458 7.62195 29.0455 7.83809C29.1078 7.87178 29.1671 7.90731 29.2234 7.94444H21.037C20.1066 7.94444 19.1955 8.22605 18.5072 8.75238C17.8161 9.28091 17.3889 10.0308 17.3889 10.8519Z" stroke="white" stroke-opacity="0.6"/>
</svg>
