<svg width="143" height="26" viewBox="0 0 143 26" fill="none" xmlns="http://www.w3.org/2000/svg">
<rect width="143" height="26" rx="10" fill="#365280"/>
<path d="M51.207 10.7637L48.7754 18H47.0703L50.2578 9.46875H51.3477L51.207 10.7637ZM53.2402 18L50.7969 10.7637L50.6504 9.46875H51.7461L54.9512 18H53.2402ZM53.1289 14.8301V16.1016H48.5527V14.8301H53.1289ZM56.8381 13.0137V18H55.2913V11.6602H56.7444L56.8381 13.0137ZM56.592 14.6016H56.135C56.1389 14.1406 56.2014 13.7227 56.3225 13.3477C56.4436 12.9727 56.6135 12.6504 56.8323 12.3809C57.0549 12.1113 57.3186 11.9043 57.6233 11.7598C57.928 11.6152 58.2678 11.543 58.6428 11.543C58.9475 11.543 59.2229 11.5859 59.469 11.6719C59.7151 11.7578 59.926 11.8945 60.1018 12.082C60.2815 12.2695 60.4182 12.5156 60.512 12.8203C60.6096 13.1211 60.6584 13.4922 60.6584 13.9336V18H59.0998V13.9219C59.0998 13.6328 59.0569 13.4043 58.9709 13.2363C58.8889 13.0684 58.7678 12.9492 58.6077 12.8789C58.4514 12.8086 58.258 12.7734 58.0276 12.7734C57.7893 12.7734 57.5803 12.8223 57.4006 12.9199C57.2248 13.0137 57.0764 13.1445 56.9553 13.3125C56.8381 13.4805 56.7483 13.6738 56.6858 13.8926C56.6233 14.1113 56.592 14.3477 56.592 14.6016ZM59.2522 9.05273L60.1721 9.11719C60.1721 9.40234 60.1135 9.66016 59.9963 9.89062C59.883 10.1172 59.7288 10.2969 59.5334 10.4297C59.3381 10.5625 59.1135 10.6289 58.8596 10.6289C58.6721 10.6289 58.51 10.6035 58.3733 10.5527C58.2405 10.502 58.1174 10.4414 58.0041 10.3711C57.8948 10.3008 57.7815 10.2402 57.6643 10.1895C57.5471 10.1348 57.4104 10.1074 57.2541 10.1074C57.1135 10.1074 56.9924 10.1602 56.8909 10.2656C56.7932 10.3711 56.7444 10.5137 56.7444 10.6934L55.8186 10.6465C55.8186 10.3652 55.8752 10.1094 55.9885 9.87891C56.1018 9.64844 56.2561 9.46484 56.4514 9.32812C56.6506 9.19141 56.8772 9.12305 57.1311 9.12305C57.2913 9.12305 57.4358 9.14844 57.5647 9.19922C57.6975 9.25 57.8245 9.31055 57.9455 9.38086C58.0666 9.44727 58.1897 9.50781 58.3147 9.5625C58.4436 9.61328 58.5823 9.63867 58.7307 9.63867C58.8752 9.63867 58.9983 9.58594 59.0998 9.48047C59.2014 9.375 59.2522 9.23242 59.2522 9.05273ZM65.2759 16.6523V13.7285C65.2759 13.5137 65.2388 13.3281 65.1645 13.1719C65.0903 13.0156 64.977 12.8945 64.8247 12.8086C64.6723 12.7227 64.479 12.6797 64.2446 12.6797C64.0376 12.6797 63.8559 12.7148 63.6997 12.7852C63.5473 12.8555 63.4302 12.9551 63.3481 13.084C63.2661 13.209 63.2251 13.3535 63.2251 13.5176H61.6723C61.6723 13.2559 61.7348 13.0078 61.8598 12.7734C61.9848 12.5352 62.1626 12.3242 62.393 12.1406C62.6274 11.9531 62.9067 11.8066 63.2309 11.7012C63.5591 11.5957 63.9263 11.543 64.3325 11.543C64.813 11.543 65.2407 11.625 65.6157 11.7891C65.9946 11.9492 66.2915 12.1914 66.5063 12.5156C66.7251 12.8398 66.8345 13.248 66.8345 13.7402V16.5059C66.8345 16.8223 66.854 17.0938 66.893 17.3203C66.936 17.543 66.9985 17.7363 67.0805 17.9004V18H65.5044C65.4302 17.8398 65.3735 17.6367 65.3345 17.3906C65.2954 17.1406 65.2759 16.8945 65.2759 16.6523ZM65.4927 14.1387L65.5044 15.0586H64.5259C64.2837 15.0586 64.0708 15.084 63.8872 15.1348C63.7036 15.1816 63.5532 15.252 63.436 15.3457C63.3188 15.4355 63.2309 15.5449 63.1723 15.6738C63.1138 15.7988 63.0845 15.9414 63.0845 16.1016C63.0845 16.2578 63.1196 16.3984 63.1899 16.5234C63.2641 16.6484 63.3696 16.748 63.5063 16.8223C63.647 16.8926 63.811 16.9277 63.9985 16.9277C64.272 16.9277 64.5102 16.873 64.7134 16.7637C64.9165 16.6504 65.0747 16.5137 65.188 16.3535C65.3013 16.1934 65.3618 16.041 65.3696 15.8965L65.8149 16.5645C65.7602 16.7246 65.6782 16.8945 65.5688 17.0742C65.4595 17.2539 65.3188 17.4219 65.147 17.5781C64.9751 17.7344 64.768 17.8633 64.5259 17.9648C64.2837 18.0664 64.0024 18.1172 63.6821 18.1172C63.272 18.1172 62.9048 18.0352 62.5805 17.8711C62.2563 17.707 62.0005 17.4824 61.813 17.1973C61.6255 16.9121 61.5317 16.5879 61.5317 16.2246C61.5317 15.8887 61.5942 15.5918 61.7192 15.334C61.8442 15.0762 62.0298 14.8594 62.2759 14.6836C62.522 14.5039 62.8266 14.3691 63.1899 14.2793C63.5571 14.1855 63.977 14.1387 64.4497 14.1387H65.4927ZM71.7917 16.6523V9H73.3503V18H71.9441L71.7917 16.6523ZM67.7195 14.9062V14.7832C67.7195 14.2988 67.7741 13.8594 67.8835 13.4648C67.9968 13.0664 68.1609 12.7246 68.3757 12.4395C68.5905 12.1543 68.8503 11.9336 69.155 11.7773C69.4636 11.6211 69.8132 11.543 70.2038 11.543C70.5827 11.543 70.9128 11.6191 71.1941 11.7715C71.4792 11.9238 71.7214 12.1406 71.9206 12.4219C72.1238 12.7031 72.2859 13.0371 72.407 13.4238C72.528 13.8066 72.6159 14.2285 72.6706 14.6895V15.0234C72.6159 15.4727 72.528 15.8848 72.407 16.2598C72.2859 16.6348 72.1238 16.9629 71.9206 17.2441C71.7214 17.5215 71.4792 17.7363 71.1941 17.8887C70.9089 18.041 70.5749 18.1172 70.1921 18.1172C69.8054 18.1172 69.4577 18.0371 69.1491 17.877C68.8445 17.7168 68.5847 17.4922 68.3698 17.2031C68.1589 16.9141 67.9968 16.5742 67.8835 16.1836C67.7741 15.793 67.7195 15.3672 67.7195 14.9062ZM69.2722 14.7832V14.9062C69.2722 15.1797 69.2956 15.4355 69.3425 15.6738C69.3894 15.9121 69.4655 16.123 69.571 16.3066C69.6765 16.4863 69.8113 16.627 69.9753 16.7285C70.1433 16.8301 70.3464 16.8809 70.5847 16.8809C70.8894 16.8809 71.1394 16.8145 71.3347 16.6816C71.5339 16.5449 71.6882 16.3594 71.7976 16.125C71.907 15.8867 71.9773 15.6191 72.0085 15.3223V14.4023C71.9929 14.168 71.9519 13.9512 71.8855 13.752C71.823 13.5527 71.7331 13.3809 71.6159 13.2363C71.5027 13.0918 71.362 12.9785 71.1941 12.8965C71.0261 12.8145 70.8269 12.7734 70.5964 12.7734C70.3581 12.7734 70.155 12.8262 69.987 12.9316C69.8191 13.0332 69.6823 13.1758 69.5769 13.3594C69.4714 13.543 69.3933 13.7559 69.3425 13.998C69.2956 14.2402 69.2722 14.502 69.2722 14.7832ZM76.1513 11.6602V18H74.5986V11.6602H76.1513ZM74.4931 10.002C74.4931 9.77148 74.5713 9.58008 74.7275 9.42773C74.8877 9.27539 75.1025 9.19922 75.372 9.19922C75.6416 9.19922 75.8545 9.27539 76.0107 9.42773C76.1709 9.58008 76.2509 9.77148 76.2509 10.002C76.2509 10.2285 76.1709 10.418 76.0107 10.5703C75.8545 10.7227 75.6416 10.7988 75.372 10.7988C75.1025 10.7988 74.8877 10.7227 74.7275 10.5703C74.5713 10.418 74.4931 10.2285 74.4931 10.002ZM78.9348 12.9551V18H77.3879V11.6602H78.8527L78.9348 12.9551ZM80.8625 11.6191L80.8391 13.0605C80.7531 13.0449 80.6555 13.0332 80.5461 13.0254C80.4406 13.0176 80.341 13.0137 80.2473 13.0137C80.009 13.0137 79.8 13.0469 79.6203 13.1133C79.4406 13.1758 79.2902 13.2676 79.1691 13.3887C79.052 13.5098 78.9621 13.6582 78.8996 13.834C78.8371 14.0059 78.802 14.2012 78.7941 14.4199L78.4602 14.3789C78.4602 13.9766 78.5012 13.6035 78.5832 13.2598C78.6652 12.916 78.7844 12.6152 78.9406 12.3574C79.0969 12.0996 79.2922 11.9004 79.5266 11.7598C79.7648 11.6152 80.0383 11.543 80.3469 11.543C80.4328 11.543 80.5246 11.5508 80.6223 11.5664C80.7238 11.5781 80.8039 11.5957 80.8625 11.6191ZM89.3298 15.1934H90.9411C90.8981 15.7637 90.7399 16.2695 90.4665 16.7109C90.193 17.1484 89.8122 17.4922 89.3239 17.7422C88.8356 17.9922 88.2438 18.1172 87.5485 18.1172C87.0134 18.1172 86.5309 18.0234 86.1012 17.8359C85.6755 17.6445 85.3102 17.373 85.0055 17.0215C84.7048 16.666 84.4743 16.2402 84.3141 15.7441C84.154 15.2441 84.0739 14.6836 84.0739 14.0625V13.4121C84.0739 12.791 84.1559 12.2305 84.32 11.7305C84.4841 11.2305 84.7184 10.8047 85.0231 10.4531C85.3317 10.0977 85.7009 9.82422 86.1305 9.63281C86.5641 9.44141 87.0485 9.3457 87.5837 9.3457C88.279 9.3457 88.8669 9.47461 89.3473 9.73242C89.8278 9.98633 90.2009 10.3359 90.4665 10.7812C90.7321 11.2266 90.8923 11.7383 90.947 12.3164H89.3356C89.3044 11.957 89.2262 11.6523 89.1012 11.4023C88.9802 11.1523 88.7966 10.9629 88.5505 10.834C88.3083 10.7012 87.986 10.6348 87.5837 10.6348C87.2712 10.6348 86.9958 10.6934 86.7575 10.8105C86.5231 10.9277 86.3278 11.1035 86.1716 11.3379C86.0153 11.5684 85.8981 11.8574 85.82 12.2051C85.7419 12.5488 85.7028 12.9473 85.7028 13.4004V14.0625C85.7028 14.4961 85.738 14.8848 85.8083 15.2285C85.8786 15.5723 85.988 15.8633 86.1364 16.1016C86.2848 16.3398 86.4762 16.5215 86.7106 16.6465C86.945 16.7715 87.2243 16.834 87.5485 16.834C87.943 16.834 88.2634 16.7715 88.5095 16.6465C88.7595 16.5215 88.9489 16.3379 89.0778 16.0957C89.2106 15.8535 89.2946 15.5527 89.3298 15.1934ZM95.6054 16.4941V11.6602H97.164V18H95.6991L95.6054 16.4941ZM95.8046 15.1816L96.2851 15.1699C96.2851 15.5957 96.2382 15.9883 96.1445 16.3477C96.0507 16.707 95.9042 17.0195 95.705 17.2852C95.5097 17.5469 95.2616 17.752 94.9609 17.9004C94.6601 18.0449 94.3046 18.1172 93.8945 18.1172C93.582 18.1172 93.2968 18.0742 93.039 17.9883C92.7812 17.8984 92.5585 17.7598 92.371 17.5723C92.1874 17.3809 92.0448 17.1367 91.9433 16.8398C91.8417 16.5391 91.7909 16.1777 91.7909 15.7559V11.6602H93.3378V15.7676C93.3378 15.9785 93.3613 16.1543 93.4081 16.2949C93.4589 16.4355 93.5273 16.5508 93.6132 16.6406C93.703 16.7266 93.8066 16.7891 93.9238 16.8281C94.0448 16.8633 94.1738 16.8809 94.3105 16.8809C94.6855 16.8809 94.9804 16.8066 95.1952 16.6582C95.414 16.5059 95.5702 16.3027 95.664 16.0488C95.7577 15.791 95.8046 15.502 95.8046 15.1816ZM99.842 12.9551V18H98.2951V11.6602H99.7599L99.842 12.9551ZM101.77 11.6191L101.746 13.0605C101.66 13.0449 101.563 13.0332 101.453 13.0254C101.348 13.0176 101.248 13.0137 101.154 13.0137C100.916 13.0137 100.707 13.0469 100.528 13.1133C100.348 13.1758 100.197 13.2676 100.076 13.3887C99.9591 13.5098 99.8693 13.6582 99.8068 13.834C99.7443 14.0059 99.7091 14.2012 99.7013 14.4199L99.3673 14.3789C99.3673 13.9766 99.4084 13.6035 99.4904 13.2598C99.5724 12.916 99.6916 12.6152 99.8478 12.3574C100.004 12.0996 100.199 11.9004 100.434 11.7598C100.672 11.6152 100.945 11.543 101.254 11.543C101.34 11.543 101.432 11.5508 101.529 11.5664C101.631 11.5781 101.711 11.5957 101.77 11.6191ZM105.866 16.2656C105.866 16.1328 105.83 16.0137 105.76 15.9082C105.69 15.8027 105.557 15.707 105.362 15.6211C105.17 15.5312 104.889 15.4473 104.518 15.3691C104.19 15.2988 103.887 15.2109 103.61 15.1055C103.332 15 103.094 14.873 102.895 14.7246C102.696 14.5723 102.539 14.3945 102.426 14.1914C102.317 13.9844 102.262 13.7461 102.262 13.4766C102.262 13.2148 102.319 12.9688 102.432 12.7383C102.545 12.5039 102.709 12.2988 102.924 12.123C103.139 11.9434 103.401 11.8027 103.709 11.7012C104.018 11.5957 104.366 11.543 104.752 11.543C105.291 11.543 105.754 11.6309 106.141 11.8066C106.532 11.9824 106.83 12.2246 107.037 12.5332C107.245 12.8379 107.348 13.1816 107.348 13.5645H105.801C105.801 13.3965 105.762 13.2441 105.684 13.1074C105.61 12.9707 105.495 12.8613 105.338 12.7793C105.182 12.6934 104.985 12.6504 104.746 12.6504C104.532 12.6504 104.35 12.6855 104.202 12.7559C104.057 12.8262 103.948 12.918 103.873 13.0312C103.799 13.1445 103.762 13.2695 103.762 13.4062C103.762 13.5078 103.782 13.5996 103.821 13.6816C103.864 13.7598 103.932 13.832 104.026 13.8984C104.12 13.9648 104.246 14.0254 104.407 14.0801C104.571 14.1348 104.772 14.1875 105.01 14.2383C105.483 14.332 105.895 14.457 106.246 14.6133C106.602 14.7656 106.879 14.9688 107.079 15.2227C107.278 15.4766 107.377 15.8008 107.377 16.1953C107.377 16.4766 107.317 16.7344 107.196 16.9688C107.075 17.1992 106.899 17.4004 106.668 17.5723C106.438 17.7441 106.162 17.8789 105.842 17.9766C105.522 18.0703 105.161 18.1172 104.758 18.1172C104.176 18.1172 103.684 18.0137 103.282 17.8066C102.879 17.5957 102.575 17.3301 102.368 17.0098C102.161 16.6855 102.057 16.3496 102.057 16.002H103.539C103.551 16.248 103.618 16.4453 103.739 16.5938C103.86 16.7422 104.012 16.8496 104.196 16.916C104.383 16.9785 104.58 17.0098 104.787 17.0098C105.022 17.0098 105.219 16.9785 105.379 16.916C105.539 16.8496 105.661 16.7617 105.743 16.6523C105.825 16.5391 105.866 16.4102 105.866 16.2656ZM108.04 14.8945V14.7715C108.04 14.3066 108.106 13.8789 108.239 13.4883C108.372 13.0938 108.565 12.752 108.819 12.4629C109.073 12.1738 109.383 11.9492 109.751 11.7891C110.118 11.625 110.536 11.543 111.005 11.543C111.481 11.543 111.903 11.625 112.27 11.7891C112.641 11.9492 112.954 12.1738 113.208 12.4629C113.462 12.752 113.655 13.0938 113.788 13.4883C113.921 13.8789 113.987 14.3066 113.987 14.7715V14.8945C113.987 15.3555 113.921 15.7832 113.788 16.1777C113.655 16.5684 113.462 16.9102 113.208 17.2031C112.954 17.4922 112.643 17.7168 112.276 17.877C111.909 18.0371 111.489 18.1172 111.016 18.1172C110.548 18.1172 110.128 18.0371 109.756 17.877C109.385 17.7168 109.073 17.4922 108.819 17.2031C108.565 16.9102 108.372 16.5684 108.239 16.1777C108.106 15.7832 108.04 15.3555 108.04 14.8945ZM109.587 14.7715V14.8945C109.587 15.1719 109.614 15.4316 109.669 15.6738C109.723 15.916 109.807 16.1289 109.921 16.3125C110.034 16.4961 110.18 16.6406 110.36 16.7461C110.544 16.8477 110.762 16.8984 111.016 16.8984C111.266 16.8984 111.481 16.8477 111.661 16.7461C111.84 16.6406 111.987 16.4961 112.1 16.3125C112.217 16.1289 112.303 15.916 112.358 15.6738C112.413 15.4316 112.44 15.1719 112.44 14.8945V14.7715C112.44 14.498 112.413 14.2422 112.358 14.0039C112.303 13.7617 112.217 13.5488 112.1 13.3652C111.987 13.1777 111.839 13.0312 111.655 12.9258C111.475 12.8164 111.258 12.7617 111.005 12.7617C110.755 12.7617 110.54 12.8164 110.36 12.9258C110.18 13.0312 110.034 13.1777 109.921 13.3652C109.807 13.5488 109.723 13.7617 109.669 14.0039C109.614 14.2422 109.587 14.498 109.587 14.7715Z" fill="white"/>
</svg>
