<svg width="146" height="27" viewBox="0 0 146 27" fill="none" xmlns="http://www.w3.org/2000/svg">
<rect width="146" height="27" rx="10" fill="#365280"/>
<path d="M61.6104 15.2642H63.4902C63.4401 15.9295 63.2555 16.5197 62.9365 17.0347C62.6175 17.5451 62.1732 17.9461 61.6035 18.2378C61.0339 18.5295 60.3434 18.6753 59.5322 18.6753C58.9079 18.6753 58.3451 18.5659 57.8438 18.3472C57.347 18.1239 56.9209 17.8071 56.5654 17.397C56.2145 16.9823 55.9456 16.4855 55.7588 15.9067C55.5719 15.3234 55.4785 14.6694 55.4785 13.9448V13.186C55.4785 12.4614 55.5742 11.8075 55.7656 11.2241C55.957 10.6408 56.2305 10.144 56.5859 9.73389C56.946 9.31917 57.3766 9.00016 57.8779 8.77686C58.3838 8.55355 58.9489 8.44189 59.5732 8.44189C60.3844 8.44189 61.0703 8.59229 61.6309 8.89307C62.1914 9.18929 62.6266 9.59717 62.9365 10.1167C63.2464 10.6362 63.4333 11.2332 63.4971 11.9077H61.6172C61.5807 11.4884 61.4896 11.133 61.3438 10.8413C61.2025 10.5496 60.9883 10.3286 60.7012 10.1782C60.4186 10.0233 60.0426 9.9458 59.5732 9.9458C59.2087 9.9458 58.8874 10.0142 58.6094 10.1509C58.3359 10.2876 58.1081 10.4927 57.9258 10.7661C57.7435 11.035 57.6068 11.3722 57.5156 11.7778C57.4245 12.1789 57.3789 12.6437 57.3789 13.1724V13.9448C57.3789 14.4507 57.4199 14.9041 57.502 15.3052C57.584 15.7062 57.7116 16.0457 57.8848 16.3237C58.0579 16.6017 58.2812 16.8136 58.5547 16.9595C58.8281 17.1053 59.154 17.1782 59.5322 17.1782C59.9925 17.1782 60.3662 17.1053 60.6533 16.9595C60.945 16.8136 61.166 16.5994 61.3164 16.3169C61.4714 16.0343 61.5693 15.6834 61.6104 15.2642ZM66.3343 12.6528V18.5386H64.5296V11.1421H66.2386L66.3343 12.6528ZM68.5833 11.0942L68.5559 12.7759C68.4557 12.7576 68.3417 12.744 68.2141 12.7349C68.0911 12.7257 67.9749 12.7212 67.8655 12.7212C67.5875 12.7212 67.3437 12.7599 67.1341 12.8374C66.9244 12.9103 66.749 13.0174 66.6077 13.1587C66.471 13.3 66.3662 13.4731 66.2932 13.6782C66.2203 13.8787 66.1793 14.1066 66.1702 14.3618L65.7805 14.314C65.7805 13.8446 65.8284 13.4093 65.9241 13.0083C66.0198 12.6073 66.1588 12.2563 66.3411 11.9556C66.5234 11.6548 66.7513 11.4224 67.0247 11.2583C67.3027 11.0897 67.6217 11.0054 67.9817 11.0054C68.082 11.0054 68.1891 11.0145 68.303 11.0327C68.4215 11.0464 68.5149 11.0669 68.5833 11.0942ZM72.48 18.6753C71.9195 18.6753 71.4159 18.5841 70.9693 18.4019C70.5227 18.2196 70.1421 17.9666 69.8277 17.6431C69.5178 17.3149 69.2785 16.9344 69.1099 16.5015C68.9459 16.064 68.8638 15.5946 68.8638 15.0933V14.8198C68.8638 14.2502 68.9459 13.7329 69.1099 13.2681C69.274 12.7987 69.5064 12.3953 69.8072 12.0581C70.108 11.7209 70.468 11.4611 70.8873 11.2788C71.3065 11.0965 71.7691 11.0054 72.275 11.0054C72.799 11.0054 73.2616 11.0942 73.6627 11.272C74.0637 11.4451 74.3987 11.6912 74.6675 12.0103C74.9364 12.3293 75.1392 12.7121 75.2759 13.1587C75.4127 13.6007 75.481 14.0907 75.481 14.6284V15.3872H69.6841V14.1431H73.7037V14.0063C73.6946 13.7192 73.6399 13.4572 73.5396 13.2202C73.4393 12.9787 73.2844 12.7873 73.0748 12.646C72.8651 12.5002 72.594 12.4272 72.2613 12.4272C71.9924 12.4272 71.7577 12.4865 71.5572 12.605C71.3612 12.7189 71.1972 12.883 71.065 13.0972C70.9374 13.3068 70.8417 13.5575 70.7779 13.8491C70.7141 14.1408 70.6822 14.4644 70.6822 14.8198V15.0933C70.6822 15.4032 70.7232 15.6903 70.8052 15.9546C70.8918 16.2189 71.0171 16.4491 71.1812 16.645C71.3498 16.8364 71.5504 16.9868 71.7828 17.0962C72.0198 17.201 72.2886 17.2534 72.5894 17.2534C72.9677 17.2534 73.3095 17.1805 73.6148 17.0347C73.9247 16.8843 74.1936 16.6632 74.4214 16.3716L75.3306 17.3149C75.1757 17.5428 74.966 17.7616 74.7017 17.9712C74.442 18.1808 74.1275 18.3517 73.7584 18.4839C73.3892 18.6115 72.9631 18.6753 72.48 18.6753ZM80.4852 16.9663V13.5552C80.4852 13.3045 80.4419 13.0881 80.3553 12.9058C80.2687 12.7235 80.1366 12.5822 79.9588 12.4819C79.7811 12.3817 79.5555 12.3315 79.2821 12.3315C79.0405 12.3315 78.8286 12.3726 78.6463 12.4546C78.4686 12.5366 78.3319 12.6528 78.2362 12.8032C78.1405 12.9491 78.0926 13.1177 78.0926 13.3091H76.2811C76.2811 13.0037 76.354 12.7144 76.4998 12.4409C76.6457 12.1629 76.853 11.9168 77.1219 11.7026C77.3954 11.4839 77.7212 11.313 78.0995 11.1899C78.4823 11.0669 78.9107 11.0054 79.3846 11.0054C79.9452 11.0054 80.4442 11.1011 80.8817 11.2925C81.3237 11.4793 81.6701 11.7619 81.9207 12.1401C82.176 12.5184 82.3036 12.9946 82.3036 13.5688V16.7954C82.3036 17.1646 82.3263 17.4813 82.3719 17.7456C82.422 18.0054 82.495 18.231 82.5907 18.4224V18.5386H80.7518C80.6652 18.3517 80.5991 18.1147 80.5536 17.8276C80.508 17.536 80.4852 17.2489 80.4852 16.9663ZM80.7381 14.0337L80.7518 15.1069H79.6102C79.3276 15.1069 79.0793 15.1366 78.8651 15.1958C78.6509 15.2505 78.4754 15.3325 78.3387 15.4419C78.202 15.5467 78.0995 15.6743 78.0311 15.8247C77.9627 15.9705 77.9286 16.1369 77.9286 16.3237C77.9286 16.506 77.9696 16.6701 78.0516 16.8159C78.1382 16.9618 78.2612 17.078 78.4207 17.1646C78.5848 17.2466 78.7762 17.2876 78.995 17.2876C79.314 17.2876 79.592 17.2238 79.8289 17.0962C80.0659 16.964 80.2505 16.8045 80.3827 16.6177C80.5148 16.4308 80.5855 16.2531 80.5946 16.0845L81.1141 16.8638C81.0503 17.0506 80.9546 17.2489 80.827 17.4585C80.6994 17.6681 80.5353 17.8641 80.3348 18.0464C80.1343 18.2287 79.8927 18.3791 79.6102 18.4976C79.3276 18.616 78.9995 18.6753 78.6258 18.6753C78.1473 18.6753 77.7189 18.5796 77.3407 18.3882C76.9624 18.1968 76.6639 17.9347 76.4452 17.6021C76.2264 17.2694 76.117 16.8911 76.117 16.4673C76.117 16.0754 76.1899 15.729 76.3358 15.4282C76.4816 15.1274 76.6981 14.8745 76.9852 14.6694C77.2723 14.4598 77.6278 14.3026 78.0516 14.1978C78.48 14.0884 78.9699 14.0337 79.5213 14.0337H80.7381ZM85.4552 12.6528V18.5386H83.6505V11.1421H85.3595L85.4552 12.6528ZM87.7042 11.0942L87.6769 12.7759C87.5766 12.7576 87.4627 12.744 87.3351 12.7349C87.212 12.7257 87.0958 12.7212 86.9864 12.7212C86.7084 12.7212 86.4646 12.7599 86.255 12.8374C86.0454 12.9103 85.8699 13.0174 85.7286 13.1587C85.5919 13.3 85.4871 13.4731 85.4142 13.6782C85.3413 13.8787 85.3002 14.1066 85.2911 14.3618L84.9015 14.314C84.9015 13.8446 84.9493 13.4093 85.045 13.0083C85.1407 12.6073 85.2797 12.2563 85.462 11.9556C85.6443 11.6548 85.8722 11.4224 86.1456 11.2583C86.4236 11.0897 86.7426 11.0054 87.1027 11.0054C87.2029 11.0054 87.31 11.0145 87.4239 11.0327C87.5424 11.0464 87.6359 11.0669 87.7042 11.0942ZM99.5241 13.3911V17.2671C99.3783 17.4539 99.1481 17.6567 98.8337 17.8755C98.5238 18.0942 98.1182 18.2834 97.6169 18.4429C97.1156 18.5978 96.5003 18.6753 95.7712 18.6753C95.1377 18.6753 94.5589 18.5705 94.0348 18.3608C93.5108 18.1466 93.0596 17.8345 92.6813 17.4243C92.3031 17.0142 92.0114 16.5129 91.8063 15.9204C91.6012 15.328 91.4987 14.6512 91.4987 13.8901V13.2339C91.4987 12.4728 91.5944 11.7961 91.7858 11.2036C91.9818 10.6112 92.2598 10.1099 92.6198 9.69971C92.9844 9.28955 93.4196 8.97738 93.9255 8.76318C94.4359 8.54899 95.0055 8.44189 95.6345 8.44189C96.4776 8.44189 97.1703 8.58089 97.7126 8.85889C98.2595 9.13688 98.6787 9.51969 98.9704 10.0073C99.2621 10.4904 99.4443 11.0464 99.5173 11.6753H97.6852C97.6351 11.3289 97.5348 11.0259 97.3845 10.7661C97.2341 10.5018 97.0199 10.2967 96.7419 10.1509C96.4684 10.0005 96.113 9.92529 95.6755 9.92529C95.3063 9.92529 94.9805 9.99821 94.6979 10.144C94.4154 10.2899 94.1784 10.5018 93.987 10.7798C93.7956 11.0578 93.6498 11.4019 93.5495 11.812C93.4538 12.2222 93.4059 12.6916 93.4059 13.2202V13.8901C93.4059 14.4233 93.4606 14.8973 93.57 15.312C93.6794 15.7222 93.8366 16.0685 94.0417 16.3511C94.2513 16.6291 94.5088 16.841 94.8141 16.9868C95.124 17.1281 95.4749 17.1987 95.8669 17.1987C96.2223 17.1987 96.5163 17.1691 96.7487 17.1099C96.9857 17.0461 97.1748 16.9709 97.3161 16.8843C97.4574 16.7977 97.5667 16.7134 97.6442 16.6313V14.7651H95.6686V13.3911H99.5241ZM102.689 12.6528V18.5386H100.885V11.1421H102.594L102.689 12.6528ZM104.938 11.0942L104.911 12.7759C104.811 12.7576 104.697 12.744 104.569 12.7349C104.446 12.7257 104.33 12.7212 104.221 12.7212C103.943 12.7212 103.699 12.7599 103.489 12.8374C103.28 12.9103 103.104 13.0174 102.963 13.1587C102.826 13.3 102.721 13.4731 102.648 13.6782C102.575 13.8787 102.534 14.1066 102.525 14.3618L102.136 14.314C102.136 13.8446 102.184 13.4093 102.279 13.0083C102.375 12.6073 102.514 12.2563 102.696 11.9556C102.879 11.6548 103.106 11.4224 103.38 11.2583C103.658 11.0897 103.977 11.0054 104.337 11.0054C104.437 11.0054 104.544 11.0145 104.658 11.0327C104.777 11.0464 104.87 11.0669 104.938 11.0942ZM110.052 16.7817V11.1421H111.87V18.5386H110.161L110.052 16.7817ZM110.284 15.2505L110.845 15.2368C110.845 15.7336 110.79 16.1916 110.681 16.6108C110.572 17.0301 110.401 17.3947 110.168 17.7046C109.94 18.0099 109.651 18.2492 109.3 18.4224C108.949 18.591 108.534 18.6753 108.056 18.6753C107.691 18.6753 107.359 18.6252 107.058 18.5249C106.757 18.4201 106.497 18.2583 106.279 18.0396C106.064 17.8162 105.898 17.5314 105.78 17.1851C105.661 16.8341 105.602 16.4126 105.602 15.9204V11.1421H107.406V15.9341C107.406 16.1802 107.434 16.3853 107.489 16.5493C107.548 16.7134 107.628 16.8478 107.728 16.9526C107.833 17.0529 107.953 17.1258 108.09 17.1714C108.231 17.2124 108.382 17.2329 108.541 17.2329C108.979 17.2329 109.323 17.1463 109.573 16.9731C109.829 16.7954 110.011 16.5584 110.12 16.2622C110.23 15.9614 110.284 15.6242 110.284 15.2505ZM114.995 12.564V21.3823H113.183V11.1421H114.858L114.995 12.564ZM119.746 14.7651V14.9087C119.746 15.4465 119.682 15.9455 119.554 16.4058C119.431 16.8615 119.249 17.2603 119.007 17.6021C118.766 17.9393 118.465 18.2036 118.105 18.395C117.75 18.5819 117.339 18.6753 116.875 18.6753C116.419 18.6753 116.022 18.5887 115.685 18.4155C115.348 18.2378 115.063 17.9871 114.831 17.6636C114.598 17.34 114.411 16.964 114.27 16.5356C114.133 16.1027 114.031 15.631 113.962 15.1206V14.6626C114.031 14.1203 114.133 13.6281 114.27 13.186C114.411 12.7394 114.598 12.3543 114.831 12.0308C115.063 11.7026 115.346 11.4497 115.678 11.272C116.015 11.0942 116.41 11.0054 116.861 11.0054C117.33 11.0054 117.743 11.0942 118.098 11.272C118.458 11.4497 118.761 11.7049 119.007 12.0376C119.253 12.3703 119.438 12.7668 119.561 13.2271C119.684 13.6873 119.746 14.2 119.746 14.7651ZM117.934 14.9087V14.7651C117.934 14.437 117.904 14.134 117.845 13.856C117.786 13.5734 117.695 13.3273 117.572 13.1177C117.449 12.9035 117.289 12.7371 117.093 12.6187C116.897 12.5002 116.66 12.4409 116.382 12.4409C116.104 12.4409 115.865 12.4865 115.665 12.5776C115.464 12.6688 115.3 12.7987 115.172 12.9673C115.045 13.1359 114.945 13.3364 114.872 13.5688C114.803 13.7967 114.758 14.0496 114.735 14.3276V15.4624C114.776 15.7996 114.856 16.1027 114.974 16.3716C115.093 16.6405 115.266 16.8547 115.494 17.0142C115.726 17.1737 116.027 17.2534 116.396 17.2534C116.674 17.2534 116.911 17.1919 117.107 17.0688C117.303 16.9458 117.462 16.7772 117.585 16.563C117.709 16.3442 117.797 16.0936 117.852 15.811C117.907 15.5285 117.934 15.2277 117.934 14.9087ZM120.464 14.9155V14.772C120.464 14.2297 120.541 13.7306 120.696 13.2749C120.851 12.8146 121.077 12.4159 121.373 12.0786C121.669 11.7414 122.031 11.4793 122.46 11.2925C122.888 11.1011 123.376 11.0054 123.923 11.0054C124.479 11.0054 124.971 11.1011 125.399 11.2925C125.832 11.4793 126.197 11.7414 126.493 12.0786C126.789 12.4159 127.015 12.8146 127.17 13.2749C127.325 13.7306 127.402 14.2297 127.402 14.772V14.9155C127.402 15.4533 127.325 15.9523 127.17 16.4126C127.015 16.8683 126.789 17.2671 126.493 17.6089C126.197 17.9461 125.834 18.2082 125.406 18.395C124.978 18.5819 124.488 18.6753 123.936 18.6753C123.389 18.6753 122.9 18.5819 122.467 18.395C122.034 18.2082 121.669 17.9461 121.373 17.6089C121.077 17.2671 120.851 16.8683 120.696 16.4126C120.541 15.9523 120.464 15.4533 120.464 14.9155ZM122.268 14.772V14.9155C122.268 15.2391 122.3 15.5422 122.364 15.8247C122.428 16.1073 122.526 16.3556 122.658 16.5698C122.79 16.784 122.961 16.9526 123.171 17.0757C123.385 17.1942 123.64 17.2534 123.936 17.2534C124.228 17.2534 124.479 17.1942 124.688 17.0757C124.898 16.9526 125.069 16.784 125.201 16.5698C125.338 16.3556 125.438 16.1073 125.502 15.8247C125.566 15.5422 125.597 15.2391 125.597 14.9155V14.772C125.597 14.453 125.566 14.1545 125.502 13.8765C125.438 13.5939 125.338 13.3455 125.201 13.1313C125.069 12.9126 124.896 12.7417 124.681 12.6187C124.472 12.491 124.219 12.4272 123.923 12.4272C123.631 12.4272 123.38 12.491 123.171 12.6187C122.961 12.7417 122.79 12.9126 122.658 13.1313C122.526 13.3455 122.428 13.5939 122.364 13.8765C122.3 14.1545 122.268 14.453 122.268 14.772Z" fill="white"/>
<path d="M32.9851 12.6692H28.4868C28.0778 12.6692 27.6855 12.5051 27.3963 12.213C27.107 11.9209 26.9446 11.5247 26.9446 11.1116V6.56828C26.9446 6.53386 26.931 6.50084 26.9069 6.4765C26.8828 6.45215 26.8501 6.43848 26.816 6.43848H23.86C23.3147 6.43848 22.7916 6.65729 22.406 7.04679C22.0204 7.43629 21.8037 7.96457 21.8037 8.5154V18.9C21.8037 19.4508 22.0204 19.9791 22.406 20.3686C22.7916 20.7581 23.3147 20.9769 23.86 20.9769H31.0572C31.6026 20.9769 32.1256 20.7581 32.5113 20.3686C32.8969 19.9791 33.1136 19.4508 33.1136 18.9V12.7991C33.1136 12.7646 33.1 12.7316 33.0759 12.7073C33.0518 12.6829 33.0191 12.6692 32.9851 12.6692ZM30.0291 17.8616H24.8882C24.7519 17.8616 24.6211 17.8068 24.5247 17.7095C24.4283 17.6121 24.3741 17.48 24.3741 17.3423C24.3741 17.2046 24.4283 17.0725 24.5247 16.9752C24.6211 16.8778 24.7519 16.8231 24.8882 16.8231H30.0291C30.1654 16.8231 30.2962 16.8778 30.3926 16.9752C30.489 17.0725 30.5431 17.2046 30.5431 17.3423C30.5431 17.48 30.489 17.6121 30.3926 17.7095C30.2962 17.8068 30.1654 17.8616 30.0291 17.8616ZM30.0291 15.2654H24.8882C24.7519 15.2654 24.6211 15.2107 24.5247 15.1133C24.4283 15.0159 24.3741 14.8839 24.3741 14.7462C24.3741 14.6085 24.4283 14.4764 24.5247 14.379C24.6211 14.2816 24.7519 14.2269 24.8882 14.2269H30.0291C30.1654 14.2269 30.2962 14.2816 30.3926 14.379C30.489 14.4764 30.5431 14.6085 30.5431 14.7462C30.5431 14.8839 30.489 15.0159 30.3926 15.1133C30.2962 15.2107 30.1654 15.2654 30.0291 15.2654Z" fill="white"/>
<path d="M32.7029 11.5198L28.0822 6.85286C28.0732 6.84384 28.0618 6.8377 28.0494 6.83522C28.0369 6.83273 28.0241 6.83402 28.0124 6.83891C28.0007 6.8438 27.9906 6.85208 27.9836 6.8627C27.9765 6.87332 27.9727 6.88582 27.9727 6.89862V11.1112C27.9727 11.2489 28.0268 11.381 28.1232 11.4784C28.2196 11.5757 28.3504 11.6304 28.4867 11.6304H32.6576C32.6702 11.6304 32.6826 11.6265 32.6931 11.6194C32.7037 11.6123 32.7118 11.6022 32.7167 11.5903C32.7215 11.5785 32.7228 11.5655 32.7203 11.5529C32.7179 11.5404 32.7118 11.5288 32.7029 11.5198Z" fill="white"/>
</svg>
