<svg width="159" height="28" viewBox="0 0 159 28" fill="none" xmlns="http://www.w3.org/2000/svg">
<rect width="159" height="28" rx="10" fill="#365280"/>
<path d="M58.9082 10.5576L56.0713 19H54.082L57.8008 9.04688H59.0723L58.9082 10.5576ZM61.2803 19L58.4297 10.5576L58.2588 9.04688H59.5371L63.2764 19H61.2803ZM61.1504 15.3018V16.7852H55.8115V15.3018H61.1504ZM65.4778 13.1826V19H63.6731V11.6035H65.3684L65.4778 13.1826ZM65.1907 15.0352H64.6575C64.6621 14.4974 64.735 14.0098 64.8763 13.5723C65.0175 13.1348 65.2158 12.7588 65.471 12.4443C65.7307 12.1299 66.0384 11.8883 66.3938 11.7197C66.7493 11.5511 67.1458 11.4668 67.5833 11.4668C67.9388 11.4668 68.26 11.5169 68.5471 11.6172C68.8343 11.7174 69.0804 11.877 69.2854 12.0957C69.4951 12.3145 69.6546 12.6016 69.7639 12.957C69.8779 13.3079 69.9348 13.7409 69.9348 14.2559V19H68.1165V14.2422C68.1165 13.9049 68.0664 13.6383 67.9661 13.4424C67.8704 13.2464 67.7291 13.1074 67.5423 13.0254C67.36 12.9434 67.1344 12.9023 66.8655 12.9023C66.5875 12.9023 66.3437 12.9593 66.1341 13.0732C65.929 13.1826 65.7558 13.3353 65.6145 13.5312C65.4778 13.7272 65.373 13.9528 65.3001 14.208C65.2272 14.4632 65.1907 14.7389 65.1907 15.0352ZM68.2942 8.56152L69.3675 8.63672C69.3675 8.9694 69.2991 9.27018 69.1624 9.53906C69.0302 9.80339 68.8502 10.013 68.6223 10.168C68.3945 10.3229 68.1324 10.4004 67.8362 10.4004C67.6175 10.4004 67.4283 10.3708 67.2688 10.3115C67.1139 10.2523 66.9703 10.1816 66.8382 10.0996C66.7106 10.0176 66.5784 9.94694 66.4417 9.8877C66.305 9.82389 66.1455 9.79199 65.9632 9.79199C65.7991 9.79199 65.6578 9.85352 65.5393 9.97656C65.4254 10.0996 65.3684 10.266 65.3684 10.4756L64.2884 10.4209C64.2884 10.0928 64.3544 9.79427 64.4866 9.52539C64.6188 9.25651 64.7988 9.04232 65.0266 8.88281C65.2591 8.72331 65.5234 8.64355 65.8196 8.64355C66.0065 8.64355 66.1751 8.67318 66.3255 8.73242C66.4804 8.79167 66.6285 8.8623 66.7698 8.94434C66.9111 9.02181 67.0546 9.09245 67.2005 9.15625C67.3509 9.21549 67.5126 9.24512 67.6858 9.24512C67.8544 9.24512 67.998 9.18359 68.1165 9.06055C68.235 8.9375 68.2942 8.77116 68.2942 8.56152ZM75.3218 17.4277V14.0166C75.3218 13.766 75.2785 13.5495 75.192 13.3672C75.1054 13.1849 74.9732 13.0436 74.7955 12.9434C74.6177 12.8431 74.3921 12.793 74.1187 12.793C73.8772 12.793 73.6653 12.834 73.483 12.916C73.3052 12.998 73.1685 13.1143 73.0728 13.2646C72.9771 13.4105 72.9293 13.5791 72.9293 13.7705H71.1177C71.1177 13.4652 71.1907 13.1758 71.3365 12.9023C71.4823 12.6243 71.6897 12.3783 71.9586 12.1641C72.232 11.9453 72.5578 11.7744 72.9361 11.6514C73.3189 11.5283 73.7473 11.4668 74.2213 11.4668C74.7818 11.4668 75.2808 11.5625 75.7183 11.7539C76.1604 11.9408 76.5067 12.2233 76.7574 12.6016C77.0126 12.9798 77.1402 13.4561 77.1402 14.0303V17.2568C77.1402 17.626 77.163 17.9427 77.2086 18.207C77.2587 18.4668 77.3316 18.6924 77.4273 18.8838V19H75.5884C75.5018 18.8132 75.4358 18.5762 75.3902 18.2891C75.3446 17.9974 75.3218 17.7103 75.3218 17.4277ZM75.5748 14.4951L75.5884 15.5684H74.4468C74.1643 15.5684 73.9159 15.598 73.7017 15.6572C73.4875 15.7119 73.3121 15.7939 73.1754 15.9033C73.0386 16.0081 72.9361 16.1357 72.8677 16.2861C72.7994 16.432 72.7652 16.5983 72.7652 16.7852C72.7652 16.9674 72.8062 17.1315 72.8882 17.2773C72.9748 17.4232 73.0979 17.5394 73.2574 17.626C73.4214 17.708 73.6129 17.749 73.8316 17.749C74.1506 17.749 74.4286 17.6852 74.6656 17.5576C74.9026 17.4255 75.0871 17.266 75.2193 17.0791C75.3515 16.8923 75.4221 16.7145 75.4312 16.5459L75.9507 17.3252C75.8869 17.512 75.7912 17.7103 75.6636 17.9199C75.536 18.1296 75.372 18.3255 75.1714 18.5078C74.9709 18.6901 74.7294 18.8405 74.4468 18.959C74.1643 19.0775 73.8362 19.1367 73.4625 19.1367C72.9839 19.1367 72.5556 19.041 72.1773 18.8496C71.7991 18.6582 71.5005 18.3962 71.2818 18.0635C71.063 17.7308 70.9537 17.3525 70.9537 16.9287C70.9537 16.5368 71.0266 16.1904 71.1724 15.8896C71.3183 15.5889 71.5347 15.3359 71.8218 15.1309C72.1089 14.9212 72.4644 14.764 72.8882 14.6592C73.3166 14.5498 73.8065 14.4951 74.358 14.4951H75.5748ZM82.9237 17.4277V8.5H84.742V19H83.1014L82.9237 17.4277ZM78.1727 15.3906V15.2471C78.1727 14.682 78.2365 14.1693 78.3641 13.709C78.4963 13.2441 78.6877 12.8454 78.9383 12.5127C79.189 12.18 79.492 11.9225 79.8475 11.7402C80.2075 11.5579 80.6154 11.4668 81.0711 11.4668C81.5132 11.4668 81.8983 11.5557 82.2264 11.7334C82.5591 11.9111 82.8416 12.1641 83.0741 12.4922C83.311 12.8203 83.5002 13.21 83.6414 13.6611C83.7827 14.1077 83.8853 14.5999 83.9491 15.1377V15.5273C83.8853 16.0514 83.7827 16.5322 83.6414 16.9697C83.5002 17.4072 83.311 17.79 83.0741 18.1182C82.8416 18.4417 82.5591 18.6924 82.2264 18.8701C81.8937 19.0479 81.5041 19.1367 81.0575 19.1367C80.6063 19.1367 80.2007 19.0433 79.8407 18.8564C79.4852 18.6696 79.1821 18.4076 78.9315 18.0703C78.6854 17.7331 78.4963 17.3366 78.3641 16.8809C78.2365 16.4251 78.1727 15.9284 78.1727 15.3906ZM79.9842 15.2471V15.3906C79.9842 15.7096 80.0116 16.0081 80.0662 16.2861C80.1209 16.5641 80.2098 16.8102 80.3329 17.0244C80.4559 17.234 80.6131 17.3981 80.8045 17.5166C81.0005 17.6351 81.2375 17.6943 81.5155 17.6943C81.8709 17.6943 82.1626 17.6169 82.3905 17.4619C82.6229 17.3024 82.8029 17.0859 82.9305 16.8125C83.0581 16.5345 83.1401 16.2223 83.1766 15.876V14.8027C83.1584 14.5293 83.1105 14.2764 83.033 14.0439C82.9601 13.8115 82.8553 13.611 82.7186 13.4424C82.5864 13.2738 82.4224 13.1416 82.2264 13.0459C82.0304 12.9502 81.798 12.9023 81.5291 12.9023C81.2511 12.9023 81.0142 12.9639 80.8182 13.0869C80.6222 13.2054 80.4627 13.3717 80.3397 13.5859C80.2166 13.8001 80.1255 14.0485 80.0662 14.3311C80.0116 14.6136 79.9842 14.9189 79.9842 15.2471ZM88.0099 11.6035V19H86.1984V11.6035H88.0099ZM86.0753 9.66895C86.0753 9.40007 86.1665 9.17676 86.3487 8.99902C86.5356 8.82129 86.7862 8.73242 87.1007 8.73242C87.4152 8.73242 87.6635 8.82129 87.8458 8.99902C88.0327 9.17676 88.1261 9.40007 88.1261 9.66895C88.1261 9.93327 88.0327 10.1543 87.8458 10.332C87.6635 10.5098 87.4152 10.5986 87.1007 10.5986C86.7862 10.5986 86.5356 10.5098 86.3487 10.332C86.1665 10.1543 86.0753 9.93327 86.0753 9.66895ZM91.2572 13.1143V19H89.4525V11.6035H91.1615L91.2572 13.1143ZM93.5062 11.5557L93.4789 13.2373C93.3786 13.2191 93.2647 13.2054 93.1371 13.1963C93.0141 13.1872 92.8979 13.1826 92.7885 13.1826C92.5105 13.1826 92.2667 13.2214 92.057 13.2988C91.8474 13.3717 91.6719 13.4788 91.5307 13.6201C91.3939 13.7614 91.2891 13.9346 91.2162 14.1396C91.1433 14.3402 91.1023 14.568 91.0932 14.8232L90.7035 14.7754C90.7035 14.306 90.7514 13.8708 90.8471 13.4697C90.9428 13.0687 91.0818 12.7178 91.2641 12.417C91.4464 12.1162 91.6742 11.8838 91.9477 11.7197C92.2256 11.5511 92.5447 11.4668 92.9047 11.4668C93.0049 11.4668 93.112 11.4759 93.226 11.4941C93.3445 11.5078 93.4379 11.5283 93.5062 11.5557ZM103.098 9.04688H104.978V15.6572C104.978 16.4183 104.813 17.0586 104.485 17.5781C104.157 18.0931 103.711 18.4827 103.145 18.7471C102.58 19.0068 101.938 19.1367 101.218 19.1367C100.489 19.1367 99.8392 19.0068 99.2695 18.7471C98.6998 18.4827 98.2532 18.0931 97.9296 17.5781C97.6061 17.0586 97.4443 16.4183 97.4443 15.6572V9.04688H99.3242V15.6572C99.3242 16.1221 99.4017 16.5026 99.5566 16.7988C99.7116 17.0905 99.9303 17.307 100.213 17.4482C100.495 17.5895 100.83 17.6602 101.218 17.6602C101.61 17.6602 101.945 17.5895 102.223 17.4482C102.505 17.307 102.722 17.0905 102.872 16.7988C103.022 16.5026 103.098 16.1221 103.098 15.6572V9.04688ZM110.412 16.9766C110.412 16.8216 110.371 16.6826 110.289 16.5596C110.207 16.4365 110.052 16.3249 109.824 16.2246C109.601 16.1198 109.273 16.0218 108.84 15.9307C108.457 15.8486 108.104 15.7461 107.781 15.623C107.457 15.5 107.179 15.3519 106.947 15.1787C106.714 15.001 106.532 14.7936 106.4 14.5566C106.272 14.3151 106.208 14.0371 106.208 13.7227C106.208 13.4173 106.274 13.1302 106.406 12.8613C106.539 12.5879 106.73 12.3486 106.981 12.1436C107.231 11.9339 107.537 11.7699 107.897 11.6514C108.257 11.5283 108.662 11.4668 109.114 11.4668C109.742 11.4668 110.282 11.5693 110.734 11.7744C111.189 11.9795 111.538 12.262 111.78 12.6221C112.021 12.9775 112.142 13.3786 112.142 13.8252H110.337C110.337 13.6292 110.292 13.4515 110.2 13.292C110.114 13.1325 109.979 13.0049 109.797 12.9092C109.615 12.8089 109.385 12.7588 109.107 12.7588C108.856 12.7588 108.644 12.7998 108.471 12.8818C108.302 12.9639 108.175 13.071 108.088 13.2031C108.002 13.3353 107.958 13.4811 107.958 13.6406C107.958 13.7591 107.981 13.8662 108.027 13.9619C108.077 14.0531 108.156 14.1374 108.266 14.2148C108.375 14.2923 108.523 14.363 108.71 14.4268C108.902 14.4906 109.136 14.5521 109.414 14.6113C109.966 14.7207 110.447 14.8665 110.857 15.0488C111.271 15.2266 111.595 15.4635 111.827 15.7598C112.06 16.056 112.176 16.4342 112.176 16.8945C112.176 17.2227 112.105 17.5234 111.964 17.7969C111.823 18.0658 111.618 18.3005 111.349 18.501C111.08 18.7015 110.759 18.8587 110.385 18.9727C110.011 19.082 109.59 19.1367 109.12 19.1367C108.441 19.1367 107.867 19.016 107.398 18.7744C106.928 18.5283 106.573 18.2184 106.331 17.8447C106.09 17.4665 105.969 17.0745 105.969 16.6689H107.698C107.712 16.9561 107.79 17.1862 107.931 17.3594C108.072 17.5326 108.25 17.6579 108.464 17.7354C108.683 17.8083 108.913 17.8447 109.155 17.8447C109.428 17.8447 109.658 17.8083 109.845 17.7354C110.032 17.6579 110.173 17.5553 110.269 17.4277C110.364 17.2956 110.412 17.1452 110.412 16.9766ZM117.672 17.2432V11.6035H119.491V19H117.782L117.672 17.2432ZM117.905 15.7119L118.465 15.6982C118.465 16.195 118.411 16.653 118.301 17.0723C118.192 17.4915 118.021 17.8561 117.789 18.166C117.561 18.4714 117.271 18.7106 116.92 18.8838C116.57 19.0524 116.155 19.1367 115.676 19.1367C115.312 19.1367 114.979 19.0866 114.678 18.9863C114.377 18.8815 114.118 18.7197 113.899 18.501C113.685 18.2777 113.518 17.9928 113.4 17.6465C113.281 17.2956 113.222 16.874 113.222 16.3818V11.6035H115.027V16.3955C115.027 16.6416 115.054 16.8467 115.109 17.0107C115.168 17.1748 115.248 17.3092 115.348 17.4141C115.453 17.5143 115.574 17.5872 115.71 17.6328C115.852 17.6738 116.002 17.6943 116.162 17.6943C116.599 17.6943 116.943 17.6077 117.194 17.4346C117.449 17.2568 117.631 17.0199 117.741 16.7236C117.85 16.4229 117.905 16.0856 117.905 15.7119ZM124.885 17.4277V14.0166C124.885 13.766 124.841 13.5495 124.755 13.3672C124.668 13.1849 124.536 13.0436 124.358 12.9434C124.18 12.8431 123.955 12.793 123.681 12.793C123.44 12.793 123.228 12.834 123.046 12.916C122.868 12.998 122.731 13.1143 122.636 13.2646C122.54 13.4105 122.492 13.5791 122.492 13.7705H120.68C120.68 13.4652 120.753 13.1758 120.899 12.9023C121.045 12.6243 121.252 12.3783 121.521 12.1641C121.795 11.9453 122.121 11.7744 122.499 11.6514C122.882 11.5283 123.31 11.4668 123.784 11.4668C124.345 11.4668 124.844 11.5625 125.281 11.7539C125.723 11.9408 126.069 12.2233 126.32 12.6016C126.575 12.9798 126.703 13.4561 126.703 14.0303V17.2568C126.703 17.626 126.726 17.9427 126.771 18.207C126.821 18.4668 126.894 18.6924 126.99 18.8838V19H125.151C125.065 18.8132 124.998 18.5762 124.953 18.2891C124.907 17.9974 124.885 17.7103 124.885 17.4277ZM125.137 14.4951L125.151 15.5684H124.01C123.727 15.5684 123.479 15.598 123.264 15.6572C123.05 15.7119 122.875 15.7939 122.738 15.9033C122.601 16.0081 122.499 16.1357 122.43 16.2861C122.362 16.432 122.328 16.5983 122.328 16.7852C122.328 16.9674 122.369 17.1315 122.451 17.2773C122.538 17.4232 122.661 17.5394 122.82 17.626C122.984 17.708 123.176 17.749 123.394 17.749C123.713 17.749 123.991 17.6852 124.228 17.5576C124.465 17.4255 124.65 17.266 124.782 17.0791C124.914 16.8923 124.985 16.7145 124.994 16.5459L125.513 17.3252C125.45 17.512 125.354 17.7103 125.226 17.9199C125.099 18.1296 124.935 18.3255 124.734 18.5078C124.534 18.6901 124.292 18.8405 124.01 18.959C123.727 19.0775 123.399 19.1367 123.025 19.1367C122.547 19.1367 122.118 19.041 121.74 18.8496C121.362 18.6582 121.063 18.3962 120.845 18.0635C120.626 17.7308 120.516 17.3525 120.516 16.9287C120.516 16.5368 120.589 16.1904 120.735 15.8896C120.881 15.5889 121.097 15.3359 121.385 15.1309C121.672 14.9212 122.027 14.764 122.451 14.6592C122.879 14.5498 123.369 14.4951 123.921 14.4951H125.137ZM129.855 13.1143V19H128.05V11.6035H129.759L129.855 13.1143ZM132.104 11.5557L132.076 13.2373C131.976 13.2191 131.862 13.2054 131.734 13.1963C131.611 13.1872 131.495 13.1826 131.386 13.1826C131.108 13.1826 130.864 13.2214 130.654 13.2988C130.445 13.3717 130.269 13.4788 130.128 13.6201C129.991 13.7614 129.886 13.9346 129.814 14.1396C129.741 14.3402 129.7 14.568 129.691 14.8232L129.301 14.7754C129.301 14.306 129.349 13.8708 129.444 13.4697C129.54 13.0687 129.679 12.7178 129.861 12.417C130.044 12.1162 130.272 11.8838 130.545 11.7197C130.823 11.5511 131.142 11.4668 131.502 11.4668C131.602 11.4668 131.709 11.4759 131.823 11.4941C131.942 11.5078 132.035 11.5283 132.104 11.5557ZM134.729 11.6035V19H132.917V11.6035H134.729ZM132.794 9.66895C132.794 9.40007 132.885 9.17676 133.068 8.99902C133.255 8.82129 133.505 8.73242 133.82 8.73242C134.134 8.73242 134.383 8.82129 134.565 8.99902C134.752 9.17676 134.845 9.40007 134.845 9.66895C134.845 9.93327 134.752 10.1543 134.565 10.332C134.383 10.5098 134.134 10.5986 133.82 10.5986C133.505 10.5986 133.255 10.5098 133.068 10.332C132.885 10.1543 132.794 9.93327 132.794 9.66895ZM135.85 15.377V15.2334C135.85 14.6911 135.928 14.1921 136.083 13.7363C136.238 13.276 136.463 12.8773 136.759 12.54C137.056 12.2028 137.418 11.9408 137.846 11.7539C138.275 11.5625 138.762 11.4668 139.309 11.4668C139.865 11.4668 140.357 11.5625 140.786 11.7539C141.219 11.9408 141.583 12.2028 141.88 12.54C142.176 12.8773 142.401 13.276 142.556 13.7363C142.711 14.1921 142.789 14.6911 142.789 15.2334V15.377C142.789 15.9147 142.711 16.4137 142.556 16.874C142.401 17.3298 142.176 17.7285 141.88 18.0703C141.583 18.4076 141.221 18.6696 140.793 18.8564C140.364 19.0433 139.874 19.1367 139.323 19.1367C138.776 19.1367 138.286 19.0433 137.853 18.8564C137.42 18.6696 137.056 18.4076 136.759 18.0703C136.463 17.7285 136.238 17.3298 136.083 16.874C135.928 16.4137 135.85 15.9147 135.85 15.377ZM137.655 15.2334V15.377C137.655 15.7005 137.687 16.0036 137.751 16.2861C137.814 16.5687 137.912 16.8171 138.045 17.0312C138.177 17.2454 138.348 17.4141 138.557 17.5371C138.771 17.6556 139.027 17.7148 139.323 17.7148C139.615 17.7148 139.865 17.6556 140.075 17.5371C140.284 17.4141 140.455 17.2454 140.588 17.0312C140.724 16.8171 140.825 16.5687 140.888 16.2861C140.952 16.0036 140.984 15.7005 140.984 15.377V15.2334C140.984 14.9144 140.952 14.6159 140.888 14.3379C140.825 14.0553 140.724 13.807 140.588 13.5928C140.455 13.374 140.282 13.2031 140.068 13.0801C139.858 12.9525 139.605 12.8887 139.309 12.8887C139.018 12.8887 138.767 12.9525 138.557 13.0801C138.348 13.2031 138.177 13.374 138.045 13.5928C137.912 13.807 137.814 14.0553 137.751 14.3379C137.687 14.6159 137.655 14.9144 137.655 15.2334Z" fill="white"/>
<path d="M20.2394 5.02668C15.7119 4.96124 12.0158 8.91649 12.0769 13.7614C12.1373 18.4078 15.6728 22.1912 20.0149 22.2558C24.5432 22.3221 28.2386 18.3668 28.1767 13.522C28.1171 8.87466 24.5815 5.09129 20.2394 5.02668ZM25.1323 18.5801C25.1169 18.598 25.098 18.612 25.0769 18.6211C25.0559 18.6303 25.0332 18.6344 25.0106 18.6331C24.9879 18.6318 24.9657 18.6253 24.9457 18.6138C24.9257 18.6024 24.9082 18.5863 24.8946 18.5669C24.5485 18.0822 24.1245 17.6673 23.6426 17.3414C22.6572 16.6646 21.4086 16.2919 20.1272 16.2919C18.8457 16.2919 17.5972 16.6646 16.6118 17.3414C16.1299 17.6671 15.7059 18.0819 15.3597 18.5665C15.3461 18.5859 15.3287 18.6019 15.3087 18.6134C15.2886 18.6248 15.2665 18.6314 15.2438 18.6327C15.2211 18.634 15.1985 18.6299 15.1774 18.6207C15.1564 18.6116 15.1375 18.5976 15.1221 18.5797C13.9864 17.2678 13.3431 15.5536 13.3154 13.7655C13.2523 9.73529 16.3428 6.36194 20.1105 6.352C23.8783 6.34206 26.9389 9.61601 26.9389 13.6413C26.9402 15.4724 26.2949 17.2365 25.1323 18.5801Z" fill="white"/>
<path d="M20.1275 9.00244C19.3642 9.00244 18.6742 9.30851 18.1838 9.86473C17.6934 10.4209 17.4484 11.19 17.5038 12.0155C17.616 13.6411 18.793 14.9664 20.1275 14.9664C21.462 14.9664 22.6366 13.6411 22.7512 12.0159C22.8084 11.1983 22.5654 10.4363 22.0669 9.8697C21.5746 9.31058 20.8857 9.00244 20.1275 9.00244Z" fill="white"/>
</svg>
