<svg width="44" height="44" viewBox="0 0 44 44" fill="none" xmlns="http://www.w3.org/2000/svg">
<path d="M43.5808 0.558578C43.4301 0.38776 43.2475 0.250234 43.0438 0.154313C42.8401 0.0583913 42.6197 0.00606545 42.3959 0.00049672C42.1721 -0.00507201 41.9495 0.0362321 41.7416 0.121913C41.5337 0.207595 41.3448 0.335874 41.1863 0.498999L39.9106 1.80866C39.7561 1.96826 39.6692 2.18466 39.6692 2.41029C39.6692 2.63593 39.7561 2.85233 39.9106 3.01193L41.0801 4.21626C41.1567 4.29571 41.2479 4.35876 41.3482 4.40178C41.4485 4.4448 41.5561 4.46695 41.6648 4.46695C41.7735 4.46695 41.881 4.4448 41.9814 4.40178C42.0817 4.35876 42.1728 4.29571 42.2495 4.21626L43.4932 2.93958C44.1222 2.29167 44.181 1.23628 43.5808 0.558578ZM37.3315 4.46841L18.7155 23.6399C18.6027 23.7558 18.5206 23.8998 18.4773 24.058L17.6162 26.7039C17.5956 26.7757 17.5941 26.8519 17.612 26.9245C17.6299 26.997 17.6664 27.0633 17.7177 27.1163C17.769 27.1692 17.8333 27.2069 17.9036 27.2253C17.974 27.2437 18.0478 27.2422 18.1174 27.2209L20.6801 26.3326C20.8334 26.2879 20.9729 26.2033 21.0853 26.0868L39.6683 6.8792C39.8402 6.69993 39.9367 6.45793 39.9367 6.20575C39.9367 5.95357 39.8402 5.71157 39.6683 5.5323L38.6422 4.46841C38.4682 4.28942 38.2326 4.18891 37.9869 4.18891C37.7412 4.18891 37.5055 4.28942 37.3315 4.46841Z" fill="white"/>
<path d="M33.834 18.2527L21.645 29.8842C21.1739 30.3339 20.5949 30.6677 19.958 30.8565L17.368 31.6823C16.7533 31.8476 16.1035 31.8538 15.4854 31.7003C14.8674 31.5468 14.3035 31.2392 13.8519 30.809C13.4002 30.3789 13.0772 29.8419 12.916 29.2533C12.7549 28.6646 12.7614 28.0457 12.935 27.4603L13.802 24.9937C13.9997 24.3873 14.3495 23.8359 14.821 23.387L27.034 11.7765C27.1459 11.67 27.2222 11.5343 27.2532 11.3865C27.2841 11.2387 27.2684 11.0855 27.2079 10.9463C27.1474 10.807 27.0449 10.688 26.9134 10.6042C26.7819 10.5204 26.6272 10.4757 26.469 10.4756H5.6C4.11479 10.4756 2.69041 11.0375 1.6402 12.0377C0.589999 13.0379 0 14.3944 0 15.8089V38.6661C0 40.0805 0.589999 41.4371 1.6402 42.4373C2.69041 43.4375 4.11479 43.9994 5.6 43.9994H29.6C31.0852 43.9994 32.5096 43.4375 33.5598 42.4373C34.61 41.4371 35.2 40.0805 35.2 38.6661V18.7908C35.1999 18.6401 35.1529 18.4928 35.065 18.3676C34.977 18.2423 34.852 18.1447 34.7058 18.0871C34.5596 18.0295 34.3987 18.0145 34.2435 18.044C34.0883 18.0735 33.9458 18.1461 33.834 18.2527Z" fill="white"/>
</svg>
