<svg width="50" height="50" viewBox="0 0 50 50" fill="none" xmlns="http://www.w3.org/2000/svg">
<path d="M0 10C0 4.47715 4.47715 0 10 0H50V50H10C4.47715 50 0 45.5228 0 40V10Z" fill="#6BA4FF"/>
<path d="M34.1999 21.5598V32.5998C34.1999 32.915 34.1378 33.2271 34.0172 33.5182C33.8966 33.8094 33.7198 34.074 33.497 34.2969C33.2741 34.5197 33.0095 34.6965 32.7183 34.8171C32.4272 34.9377 32.1151 34.9998 31.7999 34.9998H17.4C16.7635 34.9998 16.153 34.7469 15.7029 34.2969C15.2529 33.8468 15 33.2363 15 32.5998V18.1998C15 17.5633 15.2529 16.9528 15.7029 16.5027C16.153 16.0527 16.7635 15.7998 17.4 15.7998H27.4487" stroke="white" stroke-width="3" stroke-linecap="round" stroke-linejoin="round"/>
<path d="M38.756 11.315C38.6684 11.2187 38.5621 11.1411 38.4436 11.087C38.3251 11.0329 38.1969 11.0034 38.0666 11.0003C37.9364 10.9971 37.8069 11.0204 37.6859 11.0688C37.565 11.1171 37.4551 11.1894 37.3629 11.2814L36.6207 12.02C36.5307 12.11 36.4802 12.2321 36.4802 12.3593C36.4802 12.4866 36.5307 12.6086 36.6207 12.6986L37.3011 13.3778C37.3457 13.4226 37.3987 13.4582 37.457 13.4824C37.5154 13.5067 37.578 13.5192 37.6412 13.5192C37.7045 13.5192 37.7671 13.5067 37.8255 13.4824C37.8838 13.4582 37.9368 13.4226 37.9814 13.3778L38.705 12.6578C39.071 12.2924 39.1052 11.6972 38.756 11.315ZM35.1201 13.52L24.2889 24.332C24.2232 24.3974 24.1755 24.4786 24.1503 24.5678L23.6493 26.06C23.6373 26.1005 23.6365 26.1435 23.6469 26.1844C23.6573 26.2254 23.6785 26.2627 23.7084 26.2926C23.7382 26.3224 23.7756 26.3437 23.8165 26.3541C23.8575 26.3645 23.9004 26.3636 23.9409 26.3516L25.4319 25.8506C25.5211 25.8254 25.6023 25.7777 25.6677 25.712L36.4797 14.8796C36.5797 14.7785 36.6358 14.642 36.6358 14.4998C36.6358 14.3576 36.5797 14.2211 36.4797 14.12L35.8827 13.52C35.7814 13.4191 35.6443 13.3624 35.5014 13.3624C35.3584 13.3624 35.2213 13.4191 35.1201 13.52Z" fill="white"/>
</svg>
