<svg width="40" height="40" viewBox="0 0 40 40" fill="none" xmlns="http://www.w3.org/2000/svg">
<rect width="40" height="40" rx="10" fill="#8891A7" fill-opacity="0.75"/>
<path d="M37.3703 2.73729C37.2544 2.60589 37.1139 2.50011 36.9572 2.42632C36.8006 2.35253 36.631 2.31228 36.4588 2.308C36.2867 2.30372 36.1155 2.33549 35.9555 2.4014C35.7956 2.46731 35.6503 2.56598 35.5284 2.69146L34.5471 3.69889C34.4282 3.82166 34.3614 3.98812 34.3614 4.16169C34.3614 4.33525 34.4282 4.50172 34.5471 4.62448L35.4467 5.55089C35.5056 5.61201 35.5757 5.66051 35.6529 5.6936C35.7301 5.7267 35.8129 5.74373 35.8964 5.74373C35.98 5.74373 36.0628 5.7267 36.14 5.6936C36.2172 5.66051 36.2873 5.61201 36.3462 5.55089L37.3029 4.56883C37.7868 4.07044 37.832 3.2586 37.3703 2.73729ZM32.5632 5.74485L18.2432 20.4921C18.1564 20.5813 18.0932 20.6921 18.0599 20.8137L17.3976 22.8491C17.3817 22.9043 17.3806 22.9629 17.3943 23.0187C17.408 23.0746 17.4361 23.1255 17.4756 23.1663C17.5151 23.207 17.5645 23.236 17.6186 23.2502C17.6727 23.2643 17.7296 23.2632 17.7831 23.2468L19.7543 22.5635C19.8723 22.5291 19.9796 22.464 20.0661 22.3744L34.3607 7.59931C34.4929 7.46141 34.5671 7.27526 34.5671 7.08127C34.5671 6.88729 34.4929 6.70113 34.3607 6.56324L33.5714 5.74485C33.4376 5.60717 33.2563 5.52986 33.0673 5.52986C32.8783 5.52986 32.697 5.60717 32.5632 5.74485Z" fill="white"/>
<path d="M29.8719 16.3486L20.4957 25.2959C20.1333 25.6419 19.6879 25.8986 19.198 26.0439L17.2057 26.679C16.7329 26.8062 16.233 26.811 15.7576 26.6929C15.2822 26.5749 14.8484 26.3382 14.501 26.0073C14.1536 25.6765 13.9051 25.2633 13.7811 24.8106C13.6571 24.3578 13.6622 23.8817 13.7957 23.4314L14.4626 21.534C14.6147 21.0675 14.8838 20.6434 15.2465 20.2981L24.6411 11.3669C24.7272 11.285 24.7859 11.1806 24.8097 11.0669C24.8335 10.9533 24.8214 10.8354 24.7748 10.7283C24.7283 10.6212 24.6495 10.5296 24.5483 10.4651C24.4472 10.4007 24.3282 10.3663 24.2065 10.3662H8.1534C7.01092 10.3662 5.91525 10.7984 5.1074 11.5678C4.29955 12.3372 3.8457 13.3807 3.8457 14.4688V32.0512C3.8457 33.1393 4.29955 34.1828 5.1074 34.9521C5.91525 35.7215 7.01092 36.1538 8.1534 36.1538H26.6149C27.7574 36.1538 28.8531 35.7215 29.6609 34.9521C30.4688 34.1828 30.9226 33.1393 30.9226 32.0512V16.7625C30.9226 16.6466 30.8864 16.5333 30.8188 16.437C30.7511 16.3406 30.6549 16.2655 30.5425 16.2212C30.43 16.1769 30.3062 16.1654 30.1869 16.1881C30.0675 16.2107 29.9579 16.2666 29.8719 16.3486Z" fill="white"/>
</svg>
