<svg width="50" height="50" viewBox="0 0 50 50" fill="none" xmlns="http://www.w3.org/2000/svg">
<path d="M0 0H40C45.5228 0 50 4.47715 50 10V40C50 45.5228 45.5228 50 40 50H0V0Z" fill="#FF7D7D"/>
<path d="M15.1816 16.6924L16.5453 35.1539C16.61 36.2207 17.5271 37.0001 18.7271 37.0001H31.2726C32.4773 37.0001 33.3773 36.2207 33.4544 35.1539L34.818 16.6924" stroke="#FBFBFB" stroke-width="2" stroke-linecap="round" stroke-linejoin="round"/>
<path d="M13 16.6924H37H13Z" fill="black"/>
<path d="M13 16.6924H37" stroke="#FBFBFB" stroke-width="2" stroke-miterlimit="10" stroke-linecap="round"/>
<path d="M20.6363 16.6923V14.3846C20.6356 14.2026 20.6775 14.0224 20.7596 13.8541C20.8416 13.6859 20.9621 13.533 21.1141 13.4044C21.2662 13.2757 21.4469 13.1737 21.6457 13.1043C21.8445 13.0349 22.0576 12.9995 22.2726 13H27.7272C27.9423 12.9995 28.1553 13.0349 28.3541 13.1043C28.553 13.1737 28.7336 13.2757 28.8857 13.4044C29.0377 13.533 29.1583 13.6859 29.2403 13.8541C29.3223 14.0224 29.3642 14.2026 29.3635 14.3846V16.6923M24.9999 20.3846V33.3077M20.0908 20.3846L20.6363 33.3077M29.909 20.3846L29.3635 33.3077" stroke="#FBFBFB" stroke-width="2" stroke-linecap="round" stroke-linejoin="round"/>
</svg>
