<svg width="24" height="24" viewBox="0 0 24 24" fill="none" xmlns="http://www.w3.org/2000/svg">
<path d="M20.0001 23.5001H7.55566C6.62741 23.5001 5.73717 23.1314 5.08079 22.475C4.42441 21.8186 4.05566 20.9284 4.05566 20.0001V7.55566C4.05566 6.62741 4.42441 5.73717 5.08079 5.08079C5.73717 4.42441 6.62741 4.05566 7.55566 4.05566H20.0001C20.9284 4.05566 21.8186 4.42441 22.475 5.08079C23.1314 5.73717 23.5001 6.62741 23.5001 7.55566V20.0001C23.5001 20.9284 23.1314 21.8186 22.475 22.475C21.8186 23.1314 20.9284 23.5001 20.0001 23.5001Z" fill="white" stroke="white"/>
<path d="M2.16667 7.11111V19.4248C1.76651 19.1781 1.41782 18.8521 1.14351 18.4642C0.725712 17.8734 0.500933 17.1678 0.5 16.4441V4C0.5 3.07174 0.868749 2.1815 1.52513 1.52513C2.1815 0.868749 3.07174 0.5 4 0.5H16.4441C17.1678 0.500933 17.8734 0.725712 18.4642 1.14351C18.8521 1.41782 19.1781 1.76651 19.4248 2.16667H7.11111C5.79976 2.16667 4.54212 2.6876 3.61486 3.61486C2.6876 4.54212 2.16667 5.79976 2.16667 7.11111Z" fill="white" stroke="white"/>
</svg>
