<svg width="50" height="50" viewBox="0 0 50 50" fill="none" xmlns="http://www.w3.org/2000/svg">
<rect width="50" height="50" rx="25" fill="#99B34F"/>
<path d="M24.6426 10.7139C18.9061 10.7139 14.0598 13.5576 12.5954 17.4208C12.1061 18.7118 13.2619 19.8657 14.6426 19.8657V19.8657C16.0233 19.8657 17.1149 18.6667 17.8686 17.5098C19.0753 15.6577 21.6584 14.3746 24.6426 14.3746C28.7776 14.3746 32.1426 16.8382 32.1426 19.8657C32.1426 21.8223 31.0076 22.5471 28.4401 23.9931C27.4851 24.5312 26.4076 25.1389 25.3751 25.893C22.0951 28.2926 22.1301 30.6593 22.1426 30.8478V32.0085C22.1426 33.3892 23.2619 34.5085 24.6426 34.5085V34.5085C26.0233 34.5085 27.1426 33.3892 27.1426 32.0085V30.8313C27.1426 30.7874 27.2001 29.7313 28.9101 28.4811C29.7101 27.8954 30.6151 27.3866 31.4876 26.8942C34.1376 25.4007 37.1426 23.7094 37.1426 19.8657C37.1426 14.8194 31.5351 10.7139 24.6426 10.7139ZM22.1426 38.1692C22.1426 37.1583 22.9621 36.3389 23.9729 36.3389H25.3122C26.3231 36.3389 27.1426 37.1583 27.1426 38.1692V38.1692C27.1426 39.1801 26.3231 39.9996 25.3122 39.9996H23.9729C22.9621 39.9996 22.1426 39.1801 22.1426 38.1692V38.1692Z" fill="white"/>
</svg>
