<svg width="24" height="24" viewBox="0 0 24 24" fill="none" xmlns="http://www.w3.org/2000/svg">
<path d="M3.40624 24H0.601101C0.441679 24 0.288787 23.9323 0.176058 23.8117C0.0633301 23.6912 0 23.5276 0 23.3571V3.21429C0 3.04379 0.0633301 2.88028 0.176058 2.75972C0.288787 2.63916 0.441679 2.57143 0.601101 2.57143H3.40624C3.56566 2.57143 3.71855 2.63916 3.83128 2.75972C3.94401 2.88028 4.00734 3.04379 4.00734 3.21429V23.3571C4.00734 23.5276 3.94401 23.6912 3.83128 23.8117C3.71855 23.9323 3.56566 24 3.40624 24ZM11.2205 9.42857V6.64286C11.2205 6.47236 11.1572 6.30885 11.0445 6.18829C10.9318 6.06773 10.7789 6 10.6194 6H5.4099C5.25048 6 5.09759 6.06773 4.98486 6.18829C4.87213 6.30885 4.8088 6.47236 4.8088 6.64286V9.42857H11.2205ZM4.8088 20.5714V23.3571C4.8088 23.5276 4.87213 23.6912 4.98486 23.8117C5.09759 23.9323 5.25048 24 5.4099 24H10.6194C10.7789 24 10.9318 23.9323 11.0445 23.8117C11.1572 23.6912 11.2205 23.5276 11.2205 23.3571V20.5714H4.8088ZM4.8088 11.1429H11.2205V18.8571H4.8088V11.1429ZM16.2297 24H12.6231C12.4637 24 12.3108 23.9323 12.1981 23.8117C12.0853 23.6912 12.022 23.5276 12.022 23.3571V0.642857C12.022 0.472361 12.0853 0.308848 12.1981 0.188288C12.3108 0.0677293 12.4637 0 12.6231 0H16.2297C16.3891 0 16.542 0.0677293 16.6548 0.188288C16.7675 0.308848 16.8308 0.472361 16.8308 0.642857V23.3571C16.8308 23.5276 16.7675 23.6912 16.6548 23.8117C16.542 23.9323 16.3891 24 16.2297 24ZM17.6824 3.68036L19.1851 23.3855C19.1918 23.4719 19.2147 23.556 19.2526 23.6327C19.2904 23.7094 19.3424 23.7771 19.4053 23.8317C19.4683 23.8864 19.5409 23.9269 19.6188 23.9507C19.6968 23.9746 19.7784 23.9813 19.8589 23.9705L23.4735 23.4884C23.6274 23.4678 23.7679 23.3844 23.8656 23.2556C23.9634 23.1268 24.0108 22.9626 23.9979 22.7973L22.4912 3.17196C22.4845 3.08673 22.4621 3.00376 22.4251 2.92793C22.3881 2.85209 22.3373 2.78492 22.2757 2.73034C22.2141 2.67576 22.143 2.63487 22.0665 2.61007C21.9899 2.58526 21.9095 2.57704 21.83 2.58589L18.2169 2.98821C18.061 3.00623 17.9178 3.08869 17.8179 3.218C17.7181 3.34731 17.6694 3.51322 17.6824 3.68036Z" fill="white"/>
</svg>
