<svg width="24" height="24" viewBox="0 0 24 24" fill="none" xmlns="http://www.w3.org/2000/svg">
<path d="M0.866254 4.14637C0.602478 4.30065 0.383293 4.52413 0.231099 4.79397C0.0789052 5.06381 -0.000841429 5.37033 8.96918e-06 5.68221V22.0183C-0.000949056 22.3227 0.0748554 22.6221 0.220032 22.8874C0.36521 23.1527 0.574806 23.3748 0.828388 23.5321C1.08197 23.6894 1.37089 23.7765 1.66697 23.7849C1.96306 23.7933 2.25621 23.7227 2.51785 23.58C2.54089 23.5674 2.56339 23.5542 2.58535 23.5393L7.09283 20.5089C7.15269 20.4688 7.20183 20.4139 7.2358 20.3493C7.26976 20.2847 7.28746 20.2124 7.28729 20.139V0.464195C7.28751 0.383973 7.2664 0.305213 7.22624 0.236418C7.18608 0.167624 7.12839 0.111409 7.05941 0.0738424C6.99043 0.0362759 6.91277 0.0187852 6.83483 0.0232587C6.75688 0.0277321 6.6816 0.0539998 6.61712 0.0992257L0.866254 4.14637ZM9.6621 0.0711512C9.59748 0.0279902 9.52273 0.0035329 9.44573 0.000354821C9.36872 -0.00282326 9.2923 0.0153955 9.22453 0.0530925C9.15675 0.0907895 9.10012 0.14657 9.0606 0.214559C9.02108 0.282548 9.00013 0.36023 8.99996 0.439424V20.1225C8.99979 20.1959 9.01749 20.2682 9.05146 20.3328C9.08542 20.3974 9.13457 20.4523 9.19442 20.4924L14.3373 23.9285C14.4019 23.9718 14.4768 23.9964 14.5539 23.9996C14.631 24.0029 14.7076 23.9846 14.7755 23.9468C14.8433 23.9091 14.9 23.8531 14.9395 23.785C14.9791 23.7168 14.9999 23.639 14.9999 23.5597V3.88929C15.0001 3.81572 14.9824 3.74326 14.9483 3.67855C14.9143 3.61383 14.865 3.55892 14.8049 3.51882L9.6621 0.0711512ZM23.1711 0.465296C22.9185 0.306418 22.6298 0.218342 22.3337 0.209842C22.0376 0.201343 21.7445 0.272717 21.4836 0.416854C21.4605 0.429039 21.4382 0.442642 21.4167 0.45759L16.9087 3.48524C16.8488 3.52535 16.7997 3.58021 16.7657 3.64482C16.7317 3.70942 16.714 3.78173 16.7142 3.85516V23.5327C16.7139 23.613 16.735 23.6919 16.7752 23.7607C16.8154 23.8296 16.8731 23.8859 16.9422 23.9235C17.0113 23.9611 17.089 23.9785 17.1671 23.974C17.2451 23.9694 17.3204 23.943 17.3849 23.8977L23.1208 19.8538C23.3877 19.7008 23.61 19.4772 23.7646 19.2062C23.9192 18.9352 24.0004 18.6266 23.9999 18.3125V2.01821C24.0034 1.70797 23.929 1.40205 23.7838 1.13001C23.6386 0.85797 23.4276 0.629022 23.1711 0.465296Z" fill="white"/>
</svg>
