<svg width="40" height="43" viewBox="0 0 40 43" fill="none" xmlns="http://www.w3.org/2000/svg">
<path d="M25 0.25H5C3.67392 0.25 2.40215 0.697766 1.46447 1.4948C0.526784 2.29183 0 3.37283 0 4.5V38.5C0 39.6272 0.526784 40.7082 1.46447 41.5052C2.40215 42.3022 3.67392 42.75 5 42.75H35C36.3261 42.75 37.5978 42.3022 38.5355 41.5052C39.4732 40.7082 40 39.6272 40 38.5V13L25 0.25ZM13.745 30.4038C12.9725 31.02 11.8325 31.2963 10.505 31.2963C10.2476 31.2986 9.99032 31.2858 9.735 31.258V34.2882H7.5V25.9242C8.50864 25.7964 9.5278 25.7381 10.5475 25.75C11.94 25.75 12.93 25.9753 13.5975 26.4279C14.2325 26.8571 14.6625 27.5605 14.6625 28.3892C14.66 29.2222 14.335 29.9256 13.745 30.4038ZM23.2625 33.2831C22.2125 34.0247 20.615 34.3775 18.6625 34.3775C17.4925 34.3775 16.665 34.3138 16.1025 34.25V25.9264C17.1115 25.8012 18.1303 25.7422 19.15 25.75C21.0425 25.75 22.2725 26.039 23.2325 26.6552C24.27 27.3097 24.92 28.3531 24.92 29.8512C24.92 31.4726 24.2225 32.5925 23.2625 33.2831ZM32.5 27.3863H28.67V29.3221H32.25V30.8819H28.67V34.2904H26.405V25.8137H32.5V27.3863ZM25 15.125H22.5V4.5L35 15.125H25Z" fill="#C55454"/>
</svg>
