<svg width="60" height="60" viewBox="0 0 60 60" fill="none" xmlns="http://www.w3.org/2000/svg">
<rect width="60" height="60" fill="white"/>
<path d="M20.6673 36.7002C20.2073 36.7002 19.8973 36.7452 19.7373 36.7902V39.7352C19.9273 39.7802 20.1648 39.7927 20.4923 39.7927C21.6898 39.7927 22.4273 39.1877 22.4273 38.1652C22.4273 37.2502 21.7923 36.7002 20.6673 36.7002ZM29.3848 36.7302C28.8848 36.7302 28.5598 36.7752 28.3673 36.8202V43.3452C28.5598 43.3902 28.8698 43.3902 29.1498 43.3902C31.1923 43.4052 32.5223 42.2802 32.5223 39.9002C32.5373 37.8252 31.3248 36.7302 29.3848 36.7302Z" fill="#C55454"/>
<path d="M35 5H15C13.6739 5 12.4021 5.52678 11.4645 6.46447C10.5268 7.40215 10 8.67392 10 10V50C10 51.3261 10.5268 52.5979 11.4645 53.5355C12.4021 54.4732 13.6739 55 15 55H45C46.3261 55 47.5978 54.4732 48.5355 53.5355C49.4732 52.5979 50 51.3261 50 50V20L35 5ZM23.745 40.475C22.9725 41.2 21.8325 41.525 20.505 41.525C20.2476 41.5278 19.9903 41.5128 19.735 41.48V45.045H17.5V35.205C18.5086 35.0545 19.5278 34.986 20.5475 35C21.94 35 22.93 35.265 23.5975 35.7975C24.2325 36.3025 24.6625 37.13 24.6625 38.105C24.66 39.085 24.335 39.9125 23.745 40.475ZM33.2625 43.8625C32.2125 44.735 30.615 45.15 28.6625 45.15C27.4925 45.15 26.665 45.075 26.1025 45V35.2075C27.1115 35.0602 28.1303 34.9909 29.15 35C31.0425 35 32.2725 35.34 33.2325 36.065C34.27 36.835 34.92 38.0625 34.92 39.825C34.92 41.7325 34.2225 43.05 33.2625 43.8625ZM42.5 36.925H38.67V39.2025H42.25V41.0375H38.67V45.0475H36.405V35.075H42.5V36.925ZM35 22.5H32.5V10L45 22.5H35Z" fill="#C55454"/>
</svg>
