<svg width="24" height="24" viewBox="0 0 24 24" fill="none" xmlns="http://www.w3.org/2000/svg">
<path d="M16.2632 13.0909H7.65013V10.9091H16.2632V0.818182C16.2632 0.601187 16.1956 0.393079 16.0752 0.23964C15.9548 0.086201 15.7915 0 15.6212 0H0.641969C0.471708 0 0.308421 0.086201 0.188028 0.23964C0.0676358 0.393079 0 0.601187 0 0.818182V23.1818C0 23.3988 0.0676358 23.6069 0.188028 23.7604C0.308421 23.9138 0.471708 24 0.641969 24H15.6212C15.7915 24 15.9548 23.9138 16.0752 23.7604C16.1956 23.6069 16.2632 23.3988 16.2632 23.1818V13.0909ZM20.7233 13.0909L17.2995 17.4545L18.5101 18.9975L24 12L18.5101 5.0025L17.2995 6.54545L20.7233 10.9091H16.2632V13.0909H20.7233Z" fill="white"/>
</svg>
