<svg width="24" height="24" viewBox="0 0 24 24" fill="none" xmlns="http://www.w3.org/2000/svg">
<path d="M12.1679 0.00111492C5.41933 -0.0900303 -0.0900347 5.41907 0.00111497 12.1673C0.0911108 18.6392 5.36106 23.9089 11.8333 23.9989C18.583 24.0912 24.0912 18.5821 23.9989 11.8338C23.91 5.3608 18.6401 0.0911064 12.1679 0.00111492ZM19.461 18.8791C19.438 18.904 19.4098 18.9235 19.3785 18.9362C19.3471 18.949 19.3134 18.9547 19.2796 18.9529C19.2458 18.9512 19.2127 18.942 19.1829 18.926C19.153 18.9101 19.127 18.8878 19.1068 18.8607C18.5908 18.1856 17.9588 17.6076 17.2405 17.1537C15.7717 16.2111 13.9107 15.6919 12.0006 15.6919C10.0905 15.6919 8.22939 16.2111 6.76061 17.1537C6.0423 17.6074 5.41038 18.1852 4.89435 18.8601C4.87408 18.8872 4.84809 18.9095 4.81823 18.9255C4.78837 18.9414 4.75537 18.9506 4.72157 18.9523C4.68777 18.9541 4.65399 18.9484 4.62264 18.9357C4.59128 18.9229 4.56312 18.9034 4.54014 18.8786C2.84733 17.0513 1.88843 14.6636 1.84718 12.173C1.75315 6.55954 6.35967 1.86094 11.9758 1.84709C17.5918 1.83325 22.1539 6.3934 22.1539 12C22.1559 14.5506 21.194 17.0077 19.461 18.8791Z" fill="white"/>
<path d="M12.0004 5.53906C10.8627 5.53906 9.83413 5.96537 9.1032 6.7401C8.37227 7.51484 8.0071 8.58608 8.08959 9.73578C8.25689 12 10.0112 13.846 12.0004 13.846C13.9895 13.846 15.7404 12 15.9112 9.73636C15.9965 8.59762 15.6342 7.53618 14.8912 6.74703C14.1574 5.96825 13.1305 5.53906 12.0004 5.53906Z" fill="white"/>
</svg>
