<svg width="56" height="50" viewBox="0 0 56 50" fill="none" xmlns="http://www.w3.org/2000/svg">
<path d="M0 10C0 4.47715 4.47715 0 10 0H56V50H10C4.47715 50 0 45.5228 0 40V10Z" fill="#589A41"/>
<path d="M28.118 14C23.3936 14 18.5473 17.3034 14.7321 23.9101C14.6232 24.1008 14.5636 24.3262 14.5607 24.5578C14.5577 24.7894 14.6117 25.0168 14.7158 25.2114C17.6472 30.7549 22.4286 35.09 28.118 35.09C33.7456 35.09 38.6252 30.7417 41.562 25.1858C41.6636 24.995 41.7177 24.773 41.7177 24.5461C41.7177 24.3193 41.6636 24.0972 41.562 23.9065C38.6185 18.4143 33.7031 14 28.118 14Z" stroke="white" stroke-width="2" stroke-linecap="round" stroke-linejoin="round"/>
<path d="M28.1374 30.4032C30.8155 30.4032 32.9866 27.7803 32.9866 24.5449C32.9866 21.3094 30.8155 18.6865 28.1374 18.6865C25.4592 18.6865 23.2881 21.3094 23.2881 24.5449C23.2881 27.7803 25.4592 30.4032 28.1374 30.4032Z" stroke="white" stroke-width="2" stroke-miterlimit="10"/>
</svg>
